<svg width="20" height="20" viewBox="0 0 20 20" fill="none" xmlns="http://www.w3.org/2000/svg">
<path d="M10.0052 11.7619L8.23802 9.99992L10.0052 8.23796L11.7671 9.99992L10.0052 11.7619Z" fill="#D9B765"/>
<path d="M0 9.99996C0 9.99996 0.0831601 9.99476 0.22869 9.97917C0.301456 9.97397 0.389813 9.96877 0.49896 9.95838C0.602911 9.95318 0.727651 9.94279 0.862786 9.93239C1.13825 9.9168 1.4657 9.89601 1.85031 9.87522C2.22973 9.85443 2.66112 9.83364 3.1289 9.81804C3.36279 9.80765 3.60707 9.79726 3.85655 9.78686C4.11123 9.78166 4.3711 9.77127 4.64137 9.76087C5.18191 9.74528 5.74844 9.72969 6.33056 9.71929C6.47609 9.7141 6.62682 9.7141 6.77235 9.7089C6.92308 9.7089 7.06861 9.7089 7.22453 9.7037C7.37526 9.6985 7.52599 9.6985 7.67671 9.69331C7.82744 9.69331 7.98337 9.6933 8.13929 9.68811C8.7526 9.68291 9.3763 9.67771 10 9.67771C10.6237 9.67771 11.2526 9.68291 11.8659 9.68811C12.0218 9.6933 12.1726 9.69331 12.3233 9.69331C12.4792 9.6985 12.6299 9.6985 12.7807 9.7037C13.0821 9.7089 13.3784 9.7089 13.6746 9.71929C14.262 9.72969 14.8233 9.74528 15.3638 9.76087C15.6289 9.77127 15.894 9.77647 16.1434 9.78686C16.3981 9.79726 16.6424 9.80765 16.8763 9.81285C17.1102 9.82844 17.3337 9.83364 17.5468 9.84403C17.7599 9.85443 17.9626 9.86482 18.1549 9.87522C18.5343 9.89601 18.8669 9.9168 19.1424 9.93239C19.2775 9.94279 19.4023 9.94798 19.5062 9.95838C19.6154 9.96358 19.7037 9.97397 19.7765 9.97917C19.922 9.98956 20 9.99476 20 9.99476C20 9.99476 19.922 9.99996 19.7765 10.0156C19.7037 10.0208 19.6154 10.0259 19.5062 10.0363C19.4023 10.0415 19.2775 10.0519 19.1424 10.0623C18.8669 10.0779 18.5343 10.0987 18.1549 10.1195C17.9626 10.1299 17.7599 10.1403 17.5468 10.1507C17.3337 10.1559 17.1102 10.1663 16.8763 10.1767C16.6424 10.1871 16.3981 10.1975 16.1434 10.2079C15.894 10.2183 15.6289 10.2235 15.3638 10.2338C14.8233 10.2494 14.2568 10.265 13.6746 10.2754C13.3784 10.2858 13.0821 10.2858 12.7807 10.291C12.6299 10.291 12.4792 10.2962 12.3233 10.2962C12.1726 10.3014 12.0218 10.3014 11.8659 10.3066C11.2526 10.3118 10.6237 10.3118 10 10.3118C9.3763 10.3118 8.7526 10.3118 8.13929 10.3066C7.98337 10.3014 7.82744 10.3014 7.67671 10.2962C7.52599 10.2962 7.37526 10.2962 7.22453 10.291C7.0738 10.291 6.92308 10.2858 6.77235 10.2858C6.62682 10.2806 6.47609 10.2754 6.33056 10.2754C5.74324 10.265 5.17672 10.2494 4.64137 10.2286C4.3763 10.2234 4.11123 10.2131 3.85655 10.2027C3.60707 10.1975 3.36279 10.1871 3.1289 10.1767C2.66112 10.1559 2.22973 10.1351 1.85031 10.1143C1.4657 10.0935 1.13825 10.0779 0.862786 10.0571C0.727651 10.0467 0.602911 10.0415 0.49896 10.0363C0.389813 10.0259 0.301456 10.0207 0.22869 10.0156C0.0831601 10.0052 0 9.99996 0 9.99996Z" fill="#D9B765"/>
<path d="M10.0001 0C10.0001 0 10.0053 0.0779626 10.0209 0.223493C10.0261 0.296258 10.0313 0.384616 10.0417 0.493763C10.0469 0.60291 10.0573 0.722452 10.0677 0.857588C10.0833 1.13306 10.1041 1.4657 10.1249 1.84511C10.1457 2.22453 10.1665 2.65592 10.182 3.1237C10.1924 3.35759 10.2028 3.60187 10.2132 3.85655C10.2236 4.11123 10.2288 4.3711 10.2392 4.64137C10.2548 5.17671 10.2704 5.74324 10.2808 6.32536C10.286 6.47609 10.2912 6.62162 10.2912 6.77235C10.2912 6.91788 10.2964 7.06861 10.2964 7.21933C10.3016 7.37006 10.3016 7.52079 10.3068 7.67671C10.3068 7.82744 10.3068 7.97817 10.312 8.1341C10.3172 8.7474 10.3224 9.3763 10.3224 10C10.3224 10.6237 10.3172 11.2474 10.312 11.8607C10.3068 12.0166 10.3068 12.1726 10.3068 12.3233C10.3016 12.474 10.3016 12.6247 10.2964 12.7755C10.2964 13.0769 10.2912 13.3784 10.2808 13.6694C10.2704 14.2568 10.2548 14.8233 10.2392 15.3586C10.2288 15.6237 10.2236 15.8888 10.2132 16.1434C10.2028 16.3929 10.1976 16.6372 10.1872 16.8711C10.1768 17.105 10.1665 17.3337 10.1561 17.5468C10.1457 17.7599 10.1353 17.9626 10.1249 18.1497C10.1041 18.5343 10.0885 18.8669 10.0677 19.1372C10.0573 19.2723 10.0521 19.3971 10.0417 19.501C10.0365 19.6102 10.0261 19.6985 10.0209 19.7713C10.0105 19.9168 10.0053 20 10.0053 20C10.0053 20 10.0001 19.9168 9.98454 19.7713C9.97934 19.6985 9.97414 19.6102 9.96375 19.501C9.95855 19.3971 9.94816 19.2723 9.93776 19.1372C9.92217 18.8669 9.90138 18.5343 9.88059 18.1497C9.87019 17.9626 9.8598 17.7599 9.8546 17.5468C9.84421 17.3337 9.83381 17.105 9.82342 16.8711C9.81302 16.6372 9.80263 16.3929 9.79223 16.1434C9.78703 15.8888 9.77664 15.6289 9.76624 15.3586C9.75065 14.8181 9.73506 14.2568 9.72466 13.6694C9.71946 13.3784 9.71427 13.0769 9.70907 12.7755C9.70907 12.6299 9.70387 12.474 9.70387 12.3233C9.69868 12.1726 9.69868 12.0166 9.69868 11.8607C9.69348 11.2474 9.68828 10.6237 9.68828 10C9.68828 9.3763 9.69348 8.7474 9.69868 8.1341C9.69868 7.97817 9.69868 7.82744 9.70387 7.67671C9.70387 7.52079 9.70387 7.37006 9.70907 7.21933C9.70907 7.06861 9.71427 6.91788 9.71947 6.77235C9.71947 6.62162 9.72466 6.47609 9.72466 6.32536C9.74026 5.74324 9.75065 5.17671 9.77144 4.64137C9.77664 4.3711 9.78703 4.11123 9.79743 3.85655C9.80782 3.60187 9.81302 3.35759 9.82342 3.1237C9.84421 2.65592 9.865 2.22973 9.88579 1.84511C9.90658 1.4657 9.92217 1.13306 9.94296 0.857588C9.95336 0.722452 9.95855 0.60291 9.96895 0.493763C9.97415 0.384616 9.97934 0.296258 9.98454 0.223493C9.99494 0.0779626 10.0001 0 10.0001 0Z" fill="#D9B765"/>
<path d="M5.54603 5.54046C5.54603 5.54046 5.58761 5.57165 5.66038 5.62882C5.69676 5.66 5.74354 5.69638 5.79551 5.73796C5.84749 5.77954 5.90986 5.82632 5.97743 5.88349C6.11256 5.99264 6.27368 6.12258 6.4556 6.2785C6.63751 6.43443 6.84541 6.61115 7.0689 6.80865C7.17805 6.90221 7.29239 7.00615 7.41194 7.1153C7.53668 7.21925 7.65622 7.3284 7.78096 7.44275C7.84333 7.49992 7.9057 7.55709 7.97327 7.61426C8.03564 7.67663 8.1032 7.73381 8.16557 7.79618C8.30071 7.91572 8.43065 8.04046 8.56578 8.1652C9.10632 8.66936 9.67285 9.22029 10.229 9.77643C10.5045 10.0571 10.7799 10.3378 11.0502 10.6132C11.3205 10.8939 11.5855 11.1694 11.835 11.4396C12.0897 11.7099 12.334 11.9698 12.5627 12.2245C12.6718 12.3492 12.7862 12.4687 12.8901 12.5883C12.9941 12.7078 13.098 12.8222 13.1968 12.9365C13.2903 13.0509 13.3891 13.1548 13.4722 13.2588C13.5606 13.3627 13.6437 13.4563 13.7217 13.5498C13.8776 13.7317 14.0128 13.898 14.1219 14.0332C14.1739 14.1008 14.2259 14.1579 14.2674 14.2099C14.309 14.2619 14.3402 14.3086 14.3714 14.345C14.4286 14.4178 14.4598 14.4594 14.4598 14.4594C14.4598 14.4594 14.4182 14.4282 14.3454 14.371C14.309 14.3398 14.2622 14.3086 14.2103 14.2619C14.1583 14.2203 14.1011 14.1735 14.0336 14.1215C13.8984 14.0124 13.7373 13.8773 13.5502 13.7213C13.4566 13.6434 13.3579 13.5602 13.2591 13.4719C13.1552 13.3835 13.046 13.2899 12.9369 13.1912C12.8225 13.0976 12.7082 12.9937 12.5887 12.8897C12.4691 12.7806 12.3496 12.6714 12.2248 12.5571C11.9701 12.3336 11.7103 12.0893 11.44 11.8346C11.1697 11.58 10.8943 11.3201 10.6188 11.0498C10.3381 10.7795 10.0575 10.4989 9.7768 10.2234C9.22067 9.66728 8.67493 9.10075 8.17077 8.56021C8.04603 8.42507 7.91609 8.29514 7.79655 8.16C7.73938 8.09763 7.67701 8.03526 7.61984 7.96769C7.56266 7.90532 7.50549 7.83775 7.44832 7.77539C7.33397 7.65065 7.21963 7.5311 7.11568 7.40636C7.01173 7.28682 6.90778 7.17248 6.80903 7.06333C6.61672 6.83983 6.44 6.63193 6.28408 6.45002C6.12815 6.26811 5.99822 6.10179 5.88387 5.97185C5.8319 5.90428 5.77992 5.84191 5.73834 5.78994C5.70196 5.73796 5.66558 5.69119 5.63439 5.6548C5.57722 5.58204 5.54603 5.54046 5.54603 5.54046Z" fill="#D9B765"/>
<path d="M14.4598 5.5457C14.4598 5.5457 14.4286 5.58208 14.3714 5.65484C14.3402 5.69642 14.309 5.73801 14.2622 5.78998C14.2207 5.84195 14.1739 5.90433 14.1167 5.97189C14.0128 6.10703 13.8776 6.26815 13.7217 6.45006C13.5658 6.63717 13.3891 6.83988 13.1916 7.06337C13.098 7.17771 12.9941 7.29206 12.8901 7.4116C12.781 7.53114 12.6718 7.65069 12.5575 7.77543C12.5003 7.84299 12.4431 7.90536 12.3859 7.96773C12.3236 8.0353 12.2664 8.09767 12.204 8.16524C12.0845 8.29518 11.965 8.43031 11.835 8.56545C11.3309 9.10079 10.7799 9.66732 10.2238 10.2235C9.94312 10.5041 9.66246 10.7796 9.38699 11.0499C9.10632 11.3201 8.83086 11.58 8.56059 11.8347C8.29032 12.0842 8.03044 12.3284 7.77576 12.5571C7.65102 12.6715 7.53148 12.7806 7.41194 12.8846C7.29239 12.9937 7.17805 13.0925 7.0637 13.1912C6.94936 13.29 6.84541 13.3835 6.74146 13.4719C6.64271 13.5602 6.54395 13.6434 6.4504 13.7214C6.26848 13.8773 6.10216 14.0072 5.96703 14.1164C5.89946 14.1736 5.84229 14.2203 5.79031 14.2619C5.73834 14.3035 5.69156 14.3399 5.65518 14.3711C5.58242 14.423 5.54083 14.4542 5.54083 14.4542C5.54083 14.4542 5.57202 14.4178 5.62919 14.3399C5.66038 14.3035 5.69156 14.2619 5.73834 14.2099C5.77992 14.1528 5.8267 14.0956 5.88387 14.028C5.98782 13.8929 6.12296 13.7318 6.27888 13.5447C6.35684 13.4563 6.44 13.3575 6.52836 13.2536C6.61672 13.1496 6.71027 13.0457 6.80903 12.9314C6.90258 12.8222 7.00653 12.7079 7.11048 12.5883C7.21963 12.4688 7.32878 12.344 7.44312 12.2193C7.66661 11.9698 7.9109 11.7047 8.16557 11.4345C8.42025 11.1642 8.68013 10.8887 8.9504 10.6133C9.22067 10.3378 9.50133 10.0571 9.7768 9.77647C10.3329 9.22033 10.8995 8.6694 11.44 8.16524C11.5751 8.0405 11.7051 7.91576 11.8402 7.79622C11.9026 7.73385 11.9701 7.67667 12.0325 7.6143C12.0949 7.55713 12.1625 7.49996 12.2248 7.44279C12.3496 7.32844 12.4743 7.21929 12.5938 7.11534C12.7134 7.00619 12.8277 6.90225 12.9369 6.80869C13.1604 6.61119 13.3683 6.43447 13.5502 6.27855C13.7373 6.12262 13.8984 5.99268 14.0336 5.88353C14.1011 5.82636 14.1583 5.77958 14.2103 5.738C14.2622 5.69642 14.309 5.66004 14.3454 5.62886C14.4182 5.57169 14.4598 5.5457 14.4598 5.5457Z" fill="#D9B765"/>
</svg>
