<svg width="106" height="107" viewBox="0 0 106 107" fill="none" xmlns="http://www.w3.org/2000/svg">
<path d="M1.77604 1.99492L1.77604 16.4071H16.1771V1.99492L1.77604 1.99492ZM12.6354 50.5494C12.6354 50.0598 13.0312 49.6639 13.5208 49.6639C14.0104 49.6639 14.4062 50.0598 14.4062 50.5494L14.4062 92.7442C14.4062 93.2286 14.0104 93.6296 13.5208 93.6296C13.0312 93.6296 12.6354 93.2286 12.6354 92.7442L12.6354 50.5494ZM0.0520831 22.4803C0.0520831 21.9907 0.442708 21.5948 0.9375 21.5948C1.42708 21.5948 1.82292 21.9907 1.82292 22.4803L1.82291 105.339C1.82291 105.828 1.42708 106.224 0.937496 106.224C0.442704 106.224 0.0520795 105.828 0.0520795 105.339L0.0520831 22.4803ZM41.5625 44.9345C43.3542 46.7211 45.1875 48.0961 46.7188 48.8722C47.974 49.5077 48.901 49.7525 49.2083 49.4556C49.5156 49.1483 49.2708 48.2159 48.6302 46.9607C47.8542 45.4293 46.4896 43.5907 44.6927 41.799C42.9062 40.0124 41.0729 38.6373 39.5417 37.8613C38.2865 37.2258 37.3542 36.981 37.0521 37.2831C36.7448 37.5904 36.9896 38.5175 37.625 39.778C38.401 41.3041 39.776 43.148 41.5625 44.9345ZM45.9219 50.4504C44.2292 49.591 42.224 48.1066 40.3125 46.195C38.3906 44.273 36.9063 42.2677 36.0469 40.5697C35.0469 38.6113 34.8906 36.9393 35.7969 36.0331C36.7031 35.1268 38.3698 35.2882 40.3385 36.2831C42.026 37.1425 44.0313 38.6321 45.9479 40.5437C47.8646 42.4657 49.3542 44.4658 50.2135 46.1638C51.2031 48.1274 51.375 49.7941 50.4635 50.7057C49.5573 51.6119 47.8854 51.4505 45.9219 50.4504ZM31.7188 40.601C32.8646 40.1583 34.1979 40.752 35.4323 42.0646C36.4948 43.1949 37.5365 44.9033 38.3021 46.9034C39.0677 48.9087 39.4323 50.8619 39.3958 52.4141C39.3542 54.2214 38.7552 55.5601 37.6042 56.0028C36.4583 56.4351 35.125 55.8413 33.8854 54.5288C32.8281 53.3985 31.7917 51.6953 31.0208 49.69C30.2552 47.6847 29.8906 45.7314 29.9271 44.1793C29.9688 42.3719 30.5677 41.0333 31.7188 40.601ZM34.151 43.2834C33.4167 42.4969 32.7552 42.0959 32.349 42.2573C31.9375 42.4084 31.7188 43.148 31.6927 44.2157C31.6667 45.5439 31.9844 47.268 32.6771 49.0649C33.3594 50.8515 34.2656 52.3464 35.1771 53.3151C35.9063 54.0964 36.5729 54.5027 36.974 54.3412C37.3854 54.185 37.6042 53.4454 37.6302 52.3776C37.6615 51.0598 37.3385 49.3566 36.6615 47.5753C36.6562 47.5492 36.6406 47.5284 36.6354 47.4972C35.9479 45.7262 35.0469 44.247 34.151 43.2834ZM8.14583 99.0101C8.14583 99.4997 7.75 99.9008 7.26041 99.9008C6.77083 99.9008 6.375 99.4997 6.375 99.0101L6.375 28.0795C6.375 27.9129 6.42187 27.7514 6.5 27.6212C7.01042 26.6628 13.9687 14.1049 24.875 27.9754C28.5833 32.6891 29.7031 36.6893 29.349 39.7989C29.151 41.5646 28.4687 43.0438 27.5156 44.2053C26.5521 45.3616 25.3073 46.2054 23.9844 46.695C21.8802 47.4711 19.5365 47.3774 17.7083 46.32C14.776 44.6168 12.7396 41.2573 12.0208 38.1477C11.7917 37.1373 11.6927 36.1476 11.75 35.2361C11.8125 34.283 12.0417 33.4079 12.4583 32.6943C12.9896 31.7776 13.8125 31.1213 14.9427 30.8557C15.9219 30.6317 16.8177 30.6786 17.625 30.9286C18.8854 31.3141 19.901 32.1787 20.6667 33.2256C21.3906 34.2413 21.8958 35.4341 22.1562 36.5435C22.4062 37.6321 22.4167 38.6738 22.1875 39.4291C22.0469 39.8978 21.5521 40.153 21.0833 40.0124C20.6198 39.8666 20.3542 39.3718 20.5 38.903C20.6406 38.4498 20.6094 37.7363 20.4323 36.9393C20.2187 36.0435 19.8177 35.0799 19.2292 34.2673C18.6771 33.5017 17.9583 32.8871 17.1094 32.6214C16.5833 32.46 15.9896 32.4287 15.3333 32.5798C14.7187 32.7256 14.2812 33.0798 13.9896 33.585C13.7187 34.0538 13.5625 34.658 13.5156 35.3507C13.474 36.0903 13.5469 36.9081 13.7448 37.7571C14.3646 40.4447 16.1094 43.3355 18.5938 44.7835C19.9635 45.5804 21.7396 45.6325 23.3698 45.0335C24.4167 44.6481 25.3906 43.9866 26.1458 43.0803C26.901 42.1636 27.4375 40.9968 27.5885 39.5957C27.8958 36.9133 26.8646 33.3663 23.4844 29.0744C14.6042 17.7769 8.94792 26.8607 8.14583 28.3035L8.14583 99.0101ZM42.1354 32.4652C41.974 32.8714 42.375 33.5329 43.1562 34.2673C44.1302 35.1736 45.6198 36.0799 47.4167 36.7675C49.2031 37.4498 50.9271 37.7779 52.25 37.7415C53.3177 37.7206 54.0573 37.5019 54.2188 37.0956C54.375 36.6841 53.9687 36.0278 53.1875 35.2934C52.224 34.3871 50.75 33.4913 48.9792 32.8089C48.9531 32.7933 48.9219 32.7881 48.8958 32.7725C47.1146 32.1006 45.4115 31.7828 44.0938 31.8089C43.026 31.8349 42.2865 32.0537 42.1354 32.4652ZM41.9531 35.5539C40.6302 34.3142 40.0417 32.9756 40.4792 31.8297C40.9167 30.6838 42.25 30.0848 44.0573 30.0432C45.6094 30.0067 47.5625 30.3713 49.5625 31.1318C51.5677 31.9026 53.2708 32.9392 54.401 34.0017C55.7135 35.2361 56.3125 36.58 55.875 37.7258C55.4323 38.8769 54.0937 39.4707 52.2865 39.5124C50.7396 39.5541 48.7812 39.1895 46.7812 38.4238C44.776 37.6529 43.0729 36.6112 41.9531 35.5539ZM50.3073 14.6362C49.8177 14.6362 49.4167 14.2351 49.4167 13.7455C49.4167 13.2611 49.8177 12.86 50.3073 12.86L92.4844 12.86C92.974 12.86 93.3698 13.2611 93.3698 13.7455C93.3698 14.2351 92.974 14.6362 92.4844 14.6362L50.3073 14.6362ZM22.2969 1.99492C21.8125 1.99492 21.4115 1.59907 21.4115 1.10946C21.4115 0.619852 21.8125 0.224 22.2969 0.224L105.115 0.224004C105.604 0.224004 106 0.619856 106 1.10946C106 1.59907 105.604 1.99492 105.115 1.99492L22.2969 1.99492ZM98.8646 6.4691C99.349 6.4691 99.75 6.87016 99.75 7.35977C99.75 7.85459 99.349 8.24523 98.8646 8.24523L28.1875 8.24523C26.7448 9.05256 17.6667 14.7091 28.9583 23.6001C33.25 26.9753 36.7969 28.0118 39.474 27.7045C40.875 27.5431 42.0417 27.0118 42.9583 26.2565C43.8646 25.5065 44.526 24.5273 44.9115 23.4804C45.5104 21.8553 45.4531 20.0739 44.6667 18.7041C43.224 16.2196 40.3281 14.4747 37.6406 13.8497C36.7865 13.657 35.9688 13.5788 35.2292 13.6205C34.5469 13.6622 33.9375 13.8236 33.4635 14.0945C32.9635 14.3862 32.6094 14.8289 32.4688 15.4435C32.3125 16.0998 32.3437 16.6936 32.5 17.2144C32.7656 18.0686 33.3906 18.7822 34.151 19.3395C34.9583 19.9229 35.9219 20.3292 36.8229 20.5427C37.6198 20.7198 38.3281 20.7511 38.7917 20.6104C39.2552 20.4646 39.7448 20.7302 39.8906 21.1938C40.0313 21.6573 39.776 22.1522 39.3073 22.298C38.5521 22.5324 37.5104 22.5168 36.4271 22.2667C35.3125 22.0063 34.1198 21.5011 33.1146 20.7719C32.0625 20.0114 31.2031 18.9958 30.8125 17.7353C30.5625 16.9227 30.5156 16.0217 30.7448 15.0529C31 13.9122 31.6563 13.0996 32.5781 12.5684C33.2969 12.1465 34.1615 11.9173 35.1198 11.8548C36.026 11.7975 37.026 11.8965 38.0365 12.1256C41.1354 12.8444 44.4896 14.8862 46.1927 17.8186C47.2552 19.6468 47.3438 21.9855 46.5729 24.095C46.0833 25.4179 45.2448 26.6628 44.0781 27.6264C42.9219 28.5848 41.4427 29.2619 39.6771 29.465C36.5729 29.8192 32.5729 28.6941 27.8698 24.9856C13.9948 14.0736 26.5469 7.11496 27.5052 6.60452C27.6458 6.52118 27.7969 6.4691 27.974 6.4691L98.8646 6.4691ZM0 17.2925L7.07351e-07 1.10946C7.28752e-07 0.619851 0.401042 0.223999 0.890626 0.223999L17.0677 0.224C17.5521 0.224 17.9531 0.619852 17.9531 1.10946L17.9531 17.2925C17.9531 17.7822 17.5521 18.178 17.0677 18.178L0.890625 18.178C0.401041 18.178 -2.13995e-08 17.7822 0 17.2925Z" fill="#D9B765"/>
</svg>
