<svg width="106" height="106" viewBox="0 0 106 106" fill="none" xmlns="http://www.w3.org/2000/svg">
<path d="M2 2V16H16V2H2ZM41.5625 44.7105C43.3542 46.4971 45.1875 47.8721 46.7188 48.6482C47.974 49.2837 48.901 49.5285 49.2083 49.2316C49.5156 48.9243 49.2708 47.9919 48.6302 46.7367C47.8542 45.2054 46.4896 43.3667 44.6927 41.575C42.9062 39.7884 41.0729 38.4133 39.5417 37.6373C38.2865 37.0018 37.3542 36.757 37.0521 37.0591C36.7448 37.3664 36.9896 38.2935 37.625 39.554C38.401 41.0801 39.776 42.924 41.5625 44.7105ZM45.9219 50.2264C44.2292 49.367 42.224 47.8826 40.3125 45.971C38.3906 44.049 36.9063 42.0437 36.0469 40.3457C35.0469 38.3873 34.8906 36.7153 35.7969 35.8091C36.7031 34.9028 38.3698 35.0642 40.3386 36.0591C42.0261 36.9185 44.0313 38.4081 45.9479 40.3197C47.8646 42.2417 49.3542 44.2418 50.2136 45.9398C51.2031 47.9034 51.375 49.5701 50.4636 50.4817C49.5573 51.3879 47.8854 51.2265 45.9219 50.2264ZM31.7188 40.377C32.8646 39.9343 34.1979 40.528 35.4323 41.8406C36.4948 42.9709 37.5365 44.6793 38.3021 46.6794C39.0677 48.6847 39.4323 50.6379 39.3958 52.1901C39.3542 53.9974 38.7552 55.3361 37.6042 55.7788C36.4583 56.2111 35.125 55.6173 33.8854 54.3048C32.8281 53.1745 31.7917 51.4713 31.0208 49.466C30.2552 47.4607 29.8906 45.5074 29.9271 43.9553C29.9688 42.1479 30.5677 40.8093 31.7188 40.377ZM34.151 43.0594C33.4167 42.2729 32.7552 41.8719 32.349 42.0333C31.9375 42.1844 31.7188 42.924 31.6927 43.9917C31.6667 45.3199 31.9844 47.044 32.6771 48.8409C33.3594 50.6275 34.2656 52.1224 35.1771 53.0912C35.9063 53.8724 36.5729 54.2787 36.974 54.1172C37.3854 53.961 37.6042 53.2214 37.6302 52.1536C37.6615 50.8358 37.3385 49.1326 36.6615 47.3513C36.6563 47.3252 36.6406 47.3044 36.6354 47.2732C35.9479 45.5022 35.0469 44.023 34.151 43.0594ZM42.1354 32.2412C41.974 32.6474 42.375 33.3089 43.1563 34.0433C44.1302 34.9496 45.6198 35.8559 47.4167 36.5435C49.2031 37.2258 50.9271 37.5539 52.25 37.5175C53.3177 37.4966 54.0573 37.2779 54.2188 36.8716C54.375 36.4601 53.9688 35.8038 53.1875 35.0694C52.224 34.1631 50.75 33.2673 48.9792 32.5849C48.9531 32.5693 48.9219 32.5641 48.8958 32.5485C47.1146 31.8766 45.4115 31.5588 44.0938 31.5849C43.026 31.6109 42.2865 31.8297 42.1354 32.2412ZM41.9531 35.3299C40.6302 34.0902 40.0417 32.7516 40.4792 31.6057C40.9167 30.4598 42.25 29.8608 44.0573 29.8192C45.6094 29.7827 47.5625 30.1473 49.5625 30.9078C51.5677 31.6786 53.2708 32.7152 54.4011 33.7777C55.7136 35.0121 56.3125 36.356 55.875 37.5018C55.4323 38.6529 54.0937 39.2467 52.2865 39.2884C50.7396 39.3301 48.7813 38.9655 46.7813 38.1998C44.776 37.4289 43.0729 36.3872 41.9531 35.3299ZM51 14C50.5 14 50 13.4844 50 13C50 12.5156 50.5 12 51 12H93C93.5 12 94 12.5 94 13C94 13.5 93.5 14 93 14H51ZM22 2C21.5156 2 21 1.48961 21 1C21 0.510392 21.5156 -2.11737e-08 22 0H105C105.5 0 106 0.5 106 1C106 1.5 105.5 2 105 2H22ZM99 6C99.5 6 100 6.50518 100 7C100 7.49482 99.5 8 99 8H28C25.5 8.5 17.6667 14.4851 28.9583 23.3762C33.25 26.7513 36.7969 27.7878 39.474 27.4805C40.875 27.3191 42.0417 26.7878 42.9583 26.0325C43.8646 25.2825 44.526 24.3033 44.9115 23.2564C45.5104 21.6313 45.4531 19.8499 44.6667 18.4801C43.224 15.9956 40.3281 14.2507 37.6406 13.6257C36.7865 13.433 35.9688 13.3548 35.2292 13.3965C34.5469 13.4382 33.9375 13.5996 33.4635 13.8705C32.9635 14.1622 32.6094 14.6049 32.4688 15.2195C32.3125 15.8758 32.3438 16.4696 32.5 16.9904C32.7656 17.8446 33.3906 18.5582 34.151 19.1155C34.9583 19.6989 35.9219 20.1052 36.8229 20.3187C37.6198 20.4958 38.3281 20.5271 38.7917 20.3864C39.2552 20.2406 39.7448 20.5062 39.8906 20.9698C40.0313 21.4333 39.776 21.9282 39.3073 22.074C38.5521 22.3084 37.5104 22.2928 36.4271 22.0428C35.3125 21.7823 34.1198 21.2771 33.1146 20.5479C32.0625 19.7874 31.2031 18.7718 30.8125 17.5113C30.5625 16.6987 30.5156 15.7977 30.7448 14.8289C31 13.6882 31.6563 12.8756 32.5781 12.3444C33.2969 11.9225 34.1615 11.6933 35.1198 11.6308C36.026 11.5735 37.026 11.6725 38.0365 11.9016C41.1354 12.6204 44.4896 14.6622 46.1927 17.5946C47.2552 19.4228 47.3438 21.7615 46.5729 23.871C46.0833 25.1939 45.2448 26.4388 44.0781 27.4024C42.9219 28.3608 41.4427 29.0379 39.6771 29.241C36.5729 29.5952 32.5729 28.4702 27.8698 24.7616C13.9948 13.8496 25.5417 7.01044 26.5 6.5C26.6406 6.41666 27.5 6 28 6H99ZM3.67176e-06 17V1C3.67176e-06 0.5 0.500004 0 1 0H17C17.5 0 18 0.5 18 1V17C18 17.5 17.5 18 17 18H1C0.500004 18 3.67176e-06 17.5 3.67176e-06 17Z" fill="#D9B765"/>
<path d="M14.0204 51C14.0204 50.5 13.5041 50 13.019 50C12.5339 50 12.0175 50.5 12.0175 51L12.0175 93C12.0175 93.5 12.5182 94 13.019 94C13.5197 94 14.0204 93.5 14.0204 93L14.0204 51ZM2.00292 22C2.00292 21.5156 1.49178 21 1.00146 21C0.51114 21 3.62801e-06 21.5156 3.62805e-06 22L0 105C-2.18557e-08 105.5 0.50073 106 1.00146 106C1.50219 106 2.00292 105.5 2.00292 105L2.00292 22ZM6.00876 99C6.00876 99.5 6.51468 100 7.01021 100C7.50575 100 8.01167 99.5 8.01167 99L8.01168 28C8.51241 25.5 14.5062 17.6667 23.4103 28.9583C26.7904 33.25 27.8284 36.7969 27.5206 39.474C27.3589 40.875 26.8269 42.0417 26.0705 42.9583C25.3194 43.8646 24.3387 44.526 23.2903 44.9115C21.6628 45.5104 19.8789 45.4531 18.507 44.6667C16.0189 43.224 14.2715 40.3281 13.6456 37.6406C13.4526 36.7865 13.3743 35.9688 13.416 35.2292C13.4578 34.5469 13.6195 33.9375 13.8907 33.4635C14.1828 32.9635 14.6262 32.6094 15.2417 32.4688C15.8989 32.3125 16.4936 32.3437 17.0152 32.5C17.8707 32.7656 18.5853 33.3906 19.1434 34.151C19.7276 34.9583 20.1345 35.9219 20.3484 36.8229C20.5257 37.6198 20.557 38.3281 20.4162 38.7917C20.2701 39.2552 20.5361 39.7448 21.0004 39.8906C21.4646 40.0313 21.9602 39.776 22.1062 39.3073C22.3409 38.5521 22.3253 37.5104 22.0749 36.4271C21.8141 35.3125 21.3081 34.1198 20.5779 33.1146C19.8163 32.0625 18.7991 31.2031 17.5368 30.8125C16.7231 30.5625 15.8207 30.5156 14.8505 30.7448C13.7081 31 12.8944 31.6563 12.3624 32.5781C11.9399 33.2969 11.7103 34.1615 11.6478 35.1198C11.5904 36.026 11.6895 37.026 11.919 38.0365C12.6388 41.1354 14.6836 44.4896 17.6203 46.1927C19.4512 47.2552 21.7932 47.3438 23.9058 46.5729C25.2307 46.0833 26.4774 45.2448 27.4424 44.0781C28.4022 42.9219 29.0803 41.4427 29.2837 39.6771C29.6384 36.5729 28.5117 32.5729 24.7978 27.8698C13.8699 13.9948 7.02067 25.5417 6.50949 26.5C6.42603 26.6406 6.00876 27.5 6.00876 28L6.00876 99Z" fill="#D9B765"/>
</svg>
