<svg width="102" height="102" viewBox="0 0 102 102" fill="none" xmlns="http://www.w3.org/2000/svg">
<path d="M96.3806 99.0866C96.1293 99.6932 96 100.343 96 101L6 101C6 100.343 5.87067 99.6933 5.6194 99.0866C5.36813 98.48 4.99982 97.9288 4.53552 97.4645C4.07123 97.0002 3.52005 96.6319 2.91342 96.3806C2.30679 96.1294 1.65661 96 1 96L1 6.00004C1.65661 6.00004 2.3068 5.87072 2.91342 5.61944C3.52005 5.36817 4.07123 4.99987 4.53553 4.53558C4.99982 4.07128 5.36813 3.52009 5.6194 2.91346C5.87068 2.30683 6 1.65665 6 1.00004L96 1C96 1.65661 96.1293 2.30679 96.3806 2.91342C96.6319 3.52005 97.0002 4.07124 97.4645 4.53553C97.9288 4.99983 98.4799 5.36812 99.0866 5.6194C99.6932 5.87067 100.343 6 101 6V96C100.343 96 99.6932 96.1293 99.0866 96.3806C98.4799 96.6319 97.9288 97.0002 97.4645 97.4645C97.0002 97.9288 96.6319 98.4799 96.3806 99.0866Z" stroke="#D6AD60"/>
</svg>
