<svg width="26" height="26" viewBox="0 0 26 26" fill="none" xmlns="http://www.w3.org/2000/svg">
<path d="M13.0003 15.2941L10.7084 13.0026L13.0003 10.7111L15.2975 13.0026L13.0003 15.2941Z" fill="#D9B765"/>
<path d="M13.0002 0C13.0002 0 13.0106 0.104397 13.0263 0.292311C13.0315 0.391488 13.0419 0.506323 13.0524 0.64204C13.0628 0.782976 13.0733 0.93957 13.0837 1.11704C13.1046 1.47199 13.1307 1.90524 13.162 2.40112C13.1881 2.89179 13.2142 3.45553 13.2403 4.06103C13.2508 4.369 13.2612 4.68741 13.2769 5.01104C13.2873 5.33989 13.2978 5.67918 13.3082 6.02891C13.3291 6.72837 13.35 7.46437 13.3656 8.22646C13.3708 8.4196 13.3761 8.60751 13.3761 8.80586C13.3813 8.999 13.3813 9.19213 13.3865 9.38526C13.3865 9.58362 13.3917 9.78197 13.397 9.98033C13.397 10.1735 13.397 10.377 13.4022 10.5754C13.4074 11.374 13.4126 12.1883 13.4126 13.0026C13.4126 13.8117 13.4074 14.626 13.4022 15.4246C13.397 15.6282 13.3969 15.8265 13.3969 16.0249C13.3917 16.218 13.3865 16.4164 13.3865 16.6147C13.3813 17.0062 13.3761 17.3925 13.3656 17.7735C13.35 18.5356 13.3291 19.2716 13.3082 19.9711C13.2978 20.3208 13.2873 20.6601 13.2769 20.989C13.2612 21.3178 13.2508 21.631 13.2403 21.939C13.2247 22.2417 13.2142 22.534 13.1986 22.8107C13.1829 23.0926 13.1725 23.3535 13.162 23.6041C13.1307 24.0948 13.1046 24.528 13.0837 24.883C13.0733 25.0604 13.0628 25.2222 13.0524 25.358C13.0419 25.4937 13.0315 25.6137 13.0263 25.7077C13.0106 25.8956 13.0002 26 13.0002 26C13.0002 26 12.9949 25.8956 12.9793 25.7077C12.9688 25.6137 12.9636 25.4937 12.948 25.358C12.9427 25.2222 12.9323 25.0604 12.9166 24.883C12.8957 24.528 12.8696 24.0948 12.8435 23.6041C12.8279 23.3535 12.8174 23.0873 12.8018 22.8107C12.7913 22.534 12.7757 22.2417 12.7652 21.939C12.7548 21.631 12.7391 21.3126 12.7287 20.989C12.713 20.6601 12.7026 20.3208 12.6921 19.9711C12.6712 19.2716 12.6556 18.5356 12.6399 17.7735C12.6295 17.3925 12.6243 17.0062 12.619 16.6147C12.6138 16.4164 12.6138 16.218 12.6086 16.0249C12.6086 15.8265 12.6034 15.6282 12.6034 15.4246C12.5929 14.626 12.5929 13.8117 12.5929 13.0026C12.5929 12.1883 12.5929 11.374 12.6034 10.5754C12.6034 10.377 12.6086 10.1735 12.6086 9.98033C12.6138 9.78197 12.6138 9.58362 12.619 9.38526C12.619 9.19213 12.6243 8.99378 12.6243 8.80586C12.6295 8.60751 12.6347 8.4196 12.6399 8.22646C12.6556 7.46437 12.6712 6.72837 12.6921 6.02891C12.7026 5.67918 12.713 5.33989 12.7287 5.01104C12.7391 4.68219 12.7496 4.369 12.7652 4.06103C12.7913 3.45553 12.8174 2.89179 12.8435 2.40112C12.8696 1.90524 12.8957 1.47199 12.9166 1.11704C12.9323 0.93957 12.9427 0.782976 12.948 0.64204C12.9584 0.506323 12.9688 0.386269 12.9793 0.292311C12.9949 0.104397 13.0002 0 13.0002 0Z" fill="#D9B765"/>
<path d="M0 13.0025C0 13.0025 0.0991968 12.9921 0.287149 12.9764C0.386344 12.9712 0.501206 12.9608 0.636948 12.9503C0.777912 12.9399 0.934539 12.9294 1.11205 12.919C1.47229 12.8981 1.9004 12.872 2.39639 12.8459C2.89237 12.8198 3.451 12.7937 4.06185 12.7624C4.36466 12.752 4.68313 12.7415 5.01205 12.7259C5.34096 12.7154 5.68032 12.705 6.03012 12.6946C6.72972 12.6737 7.46064 12.6528 8.22811 12.6371C8.41606 12.6371 8.60924 12.6319 8.80241 12.6267C8.99558 12.6215 9.18875 12.6215 9.38715 12.6163C9.58032 12.6163 9.77871 12.611 9.97711 12.611C10.1755 12.6058 10.3739 12.6058 10.5723 12.6006C11.3711 12.5954 12.1855 12.5902 13 12.5902C13.8145 12.5902 14.6237 12.5954 15.4277 12.6006C15.6261 12.6058 15.8245 12.6058 16.0229 12.611C16.2213 12.611 16.4197 12.6163 16.6129 12.6163C17.0044 12.6215 17.3908 12.6319 17.7719 12.6371C18.5341 12.6528 19.2703 12.6737 19.9699 12.6946C20.3197 12.705 20.659 12.7154 20.988 12.7259C21.3169 12.7415 21.6353 12.752 21.9382 12.7624C22.2462 12.7781 22.5333 12.7937 22.8153 12.8042C23.092 12.8198 23.3582 12.8303 23.6036 12.8459C24.0996 12.872 24.5329 12.8981 24.8827 12.919C25.0602 12.9294 25.2221 12.9399 25.3578 12.9503C25.4988 12.9608 25.6137 12.9712 25.7076 12.9764C25.9008 12.9921 26 13.0025 26 13.0025C26 13.0025 25.9008 13.0077 25.7076 13.0286C25.6137 13.0338 25.4988 13.0391 25.3578 13.0547C25.2221 13.0599 25.0602 13.0756 24.8827 13.086C24.5277 13.1069 24.0996 13.133 23.6036 13.1591C23.353 13.1748 23.092 13.1852 22.8153 13.2009C22.5333 13.2113 22.2462 13.227 21.9382 13.2374C21.6353 13.2531 21.3169 13.2635 20.988 13.2792C20.659 13.2896 20.3197 13.3001 19.9699 13.3105C19.2703 13.3314 18.5341 13.3523 17.7719 13.3679C17.3908 13.3731 17.0044 13.3784 16.6129 13.3836C16.4197 13.3888 16.2213 13.394 16.0229 13.394C15.8245 13.3992 15.6261 13.3992 15.4277 13.3992C14.6237 13.4097 13.8145 13.4149 13 13.4149C12.1855 13.4149 11.3711 13.4097 10.5723 13.3992C10.3739 13.3992 10.1755 13.3992 9.97711 13.394C9.77871 13.394 9.58032 13.3888 9.38715 13.3836C9.18875 13.3836 8.99558 13.3784 8.80241 13.3784C8.60924 13.3731 8.41606 13.3679 8.22811 13.3679C7.46064 13.3523 6.72972 13.3314 6.03012 13.3105C5.68032 13.3001 5.34096 13.2896 5.01205 13.2792C4.68313 13.2635 4.36466 13.2531 4.06185 13.2374C3.451 13.2113 2.89237 13.1852 2.39639 13.1591C1.9004 13.133 1.46707 13.1069 1.11205 13.086C0.934539 13.0756 0.777912 13.0599 0.636948 13.0547C0.501206 13.0443 0.381124 13.0338 0.287149 13.0286C0.0991968 13.013 0 13.0025 0 13.0025Z" fill="#D9B765"/>
<path d="M7.21004 7.20851C7.21004 7.20851 7.26225 7.25027 7.35623 7.32335C7.40321 7.35989 7.46064 7.40686 7.52851 7.45906C7.59639 7.51648 7.67992 7.5739 7.76345 7.64698C7.94096 7.78791 8.1498 7.96539 8.38996 8.16374C8.63012 8.36732 8.89639 8.59699 9.18353 8.85276C9.32972 8.97803 9.48112 9.10853 9.63775 9.24947C9.78916 9.38518 9.94578 9.53134 10.1129 9.67749C10.1964 9.75057 10.2799 9.82365 10.3582 9.90195C10.4418 9.98024 10.5253 10.0585 10.6141 10.1316C10.7811 10.2882 10.9534 10.45 11.1309 10.6171C11.8305 11.2748 12.5667 11.9847 13.2924 12.7102C13.6526 13.0704 14.0129 13.4358 14.3627 13.7959C14.7177 14.1613 15.057 14.5215 15.3859 14.8712C15.7149 15.221 16.0281 15.5602 16.3257 15.8891C16.4719 16.0509 16.6181 16.2075 16.7538 16.3641C16.8896 16.5207 17.0253 16.6721 17.1506 16.813C17.2759 16.9592 17.4012 17.1001 17.5108 17.2306C17.6257 17.3663 17.7353 17.4916 17.8345 17.6116C18.0382 17.8518 18.2157 18.0605 18.3566 18.238C18.4245 18.3268 18.4871 18.4051 18.5446 18.4729C18.5968 18.5408 18.6438 18.6034 18.6803 18.6504C18.7534 18.7443 18.7952 18.7965 18.7952 18.7965C18.7952 18.7965 18.743 18.7548 18.649 18.6817C18.5968 18.6452 18.5394 18.5982 18.4715 18.546C18.4036 18.4886 18.3253 18.4259 18.2365 18.3581C18.059 18.2171 17.8502 18.0397 17.61 17.8413C17.49 17.7369 17.3647 17.6325 17.2289 17.5177C17.0984 17.4029 16.9574 17.2776 16.8112 17.1523C16.6703 17.027 16.5189 16.8965 16.3622 16.7556C16.2108 16.6199 16.049 16.4737 15.8871 16.3276C15.5582 16.03 15.2189 15.7168 14.8691 15.388C14.5141 15.0591 14.159 14.7146 13.7936 14.3649C13.4333 14.0152 13.0679 13.655 12.7076 13.2948C11.9871 12.5693 11.2719 11.8333 10.6141 11.1338C10.447 10.9564 10.2851 10.7841 10.1285 10.6171C10.0502 10.5335 9.97189 10.4448 9.8988 10.3613C9.82048 10.283 9.74739 10.1995 9.6743 10.116C9.52811 9.95414 9.38193 9.79755 9.24619 9.64095C9.10522 9.48436 8.9747 9.33298 8.84418 9.18683C8.59357 8.89974 8.36385 8.63353 8.16024 8.39341C7.96185 8.1533 7.78434 7.94451 7.64337 7.76703C7.57028 7.68352 7.50763 7.60522 7.45542 7.53736C7.40321 7.4695 7.35623 7.40686 7.31968 7.35989C7.24659 7.26071 7.21004 7.20851 7.21004 7.20851Z" fill="#D9B765"/>
<path d="M18.7952 7.21373C18.7952 7.21373 18.7586 7.2607 18.6855 7.35988C18.649 7.40686 18.602 7.46428 18.5446 7.53214C18.4924 7.59999 18.4297 7.67829 18.3566 7.76703C18.2157 7.93928 18.0434 8.1533 17.8398 8.39341C17.6414 8.6283 17.4064 8.89973 17.1558 9.18682C17.0305 9.33298 16.8948 9.47913 16.759 9.63573C16.6233 9.79232 16.4771 9.94892 16.3309 10.116C16.2578 10.1995 16.1795 10.2778 16.1012 10.3613C16.0281 10.4448 15.9498 10.5283 15.8715 10.6118C15.7149 10.7841 15.553 10.9563 15.3912 11.1338C14.7333 11.8333 14.0181 12.5693 13.2924 13.2896C12.9321 13.655 12.5667 14.0152 12.2064 14.3649C11.8462 14.7146 11.4859 15.0591 11.1361 15.388C10.7863 15.7168 10.447 16.03 10.1181 16.3276C9.951 16.4737 9.79438 16.6199 9.63775 16.7556C9.48112 16.8913 9.33494 17.027 9.18876 17.1523C9.04257 17.2776 8.90683 17.4028 8.77108 17.5125C8.63534 17.6273 8.51004 17.7369 8.38996 17.8361C8.1498 18.0397 7.94096 18.2119 7.76867 18.3529C7.67992 18.4259 7.60161 18.4886 7.52851 18.5408C7.46064 18.5982 7.40321 18.6399 7.35623 18.6817C7.26225 18.7548 7.21004 18.7913 7.21004 18.7913C7.21004 18.7913 7.24659 18.7443 7.31968 18.6452C7.36145 18.5982 7.40321 18.5408 7.46064 18.4729C7.51285 18.3998 7.5755 18.3268 7.64859 18.238C7.78956 18.0605 7.96185 17.8517 8.16546 17.6116C8.26466 17.4916 8.3743 17.3663 8.48916 17.2306C8.60402 17.0949 8.7241 16.9592 8.8494 16.813C8.9747 16.6668 9.11044 16.5207 9.24619 16.3641C9.38715 16.2075 9.52811 16.0509 9.6743 15.8839C9.97189 15.5602 10.2904 15.2157 10.6141 14.866C10.943 14.5163 11.2876 14.1561 11.6374 13.7959C11.9924 13.4358 12.3474 13.0704 12.7129 12.7102C13.4386 11.9847 14.1695 11.2695 14.8743 10.6118C15.0466 10.45 15.2189 10.2882 15.3912 10.1316C15.4747 10.0533 15.5582 9.97502 15.6418 9.90194C15.7253 9.82364 15.8088 9.75057 15.8871 9.67227C16.0542 9.52611 16.2108 9.38518 16.3675 9.24424C16.5241 9.10853 16.6703 8.97281 16.8165 8.84753C17.1088 8.59698 17.3751 8.36731 17.6153 8.16374C17.8502 7.96016 18.0643 7.78791 18.2365 7.64697C18.3253 7.5739 18.4036 7.51126 18.4715 7.45906C18.5394 7.40164 18.5968 7.35466 18.649 7.31812C18.7482 7.25026 18.7952 7.21373 18.7952 7.21373Z" fill="#D9B765"/>
</svg>
