<svg viewBox="0 0 576 192" fill="none" xmlns="http://www.w3.org/2000/svg">
<g>
    <path d="M554.818 170.469V156.057H540.417V170.469H554.818ZM543.958 121.922C543.958 122.406 543.563 122.807 543.073 122.807C542.583 122.807 542.187 122.406 542.188 121.922L542.188 79.7292C542.188 79.2397 542.583 78.8438 543.073 78.8438C543.563 78.8438 543.958 79.2397 543.958 79.7292V121.922ZM556.542 149.984C556.542 150.474 556.151 150.875 555.656 150.875C555.167 150.875 554.771 150.474 554.771 149.984V67.1355C554.771 66.6459 555.167 66.2449 555.656 66.2449C556.151 66.2449 556.542 66.6459 556.542 67.1355V149.984ZM515.031 127.531C513.24 125.745 511.406 124.37 509.875 123.594C508.62 122.958 507.693 122.714 507.385 123.016C507.078 123.323 507.323 124.25 507.964 125.51C508.74 127.037 510.104 128.88 511.901 130.667C513.687 132.453 515.521 133.828 517.052 134.604C518.307 135.24 519.24 135.484 519.542 135.182C519.849 134.875 519.604 133.948 518.969 132.693C518.193 131.162 516.818 129.318 515.031 127.531ZM510.672 122.016C512.365 122.875 514.37 124.365 516.281 126.276C518.203 128.198 519.688 130.198 520.547 131.896C521.547 133.859 521.703 135.526 520.797 136.432C519.891 137.344 518.224 137.182 516.255 136.182C514.568 135.323 512.562 133.839 510.646 131.922C508.729 130.005 507.24 128 506.38 126.302C505.391 124.344 505.219 122.672 506.13 121.766C507.036 120.859 508.708 121.021 510.672 122.016ZM524.875 131.87C523.729 132.307 522.396 131.714 521.161 130.401C520.099 129.271 519.062 127.568 518.292 125.563C517.526 123.563 517.161 121.604 517.198 120.057C517.24 118.25 517.839 116.906 518.99 116.469C520.135 116.037 521.469 116.63 522.708 117.943C523.766 119.073 524.802 120.776 525.573 122.776C526.339 124.781 526.703 126.74 526.667 128.287C526.625 130.094 526.026 131.438 524.875 131.87ZM522.443 129.188C523.177 129.969 523.839 130.375 524.245 130.214C524.656 130.063 524.875 129.318 524.901 128.25C524.927 126.927 524.609 125.198 523.917 123.406C523.234 121.62 522.328 120.125 521.417 119.156C520.688 118.37 520.021 117.969 519.62 118.13C519.208 118.281 518.99 119.021 518.964 120.089C518.932 121.412 519.255 123.115 519.932 124.896C519.937 124.922 519.953 124.943 519.958 124.969C520.646 126.745 521.547 128.224 522.443 129.188ZM548.448 73.4584C548.448 72.9688 548.844 72.573 549.333 72.573C549.823 72.573 550.219 72.9688 550.219 73.4584L550.219 144.385C550.219 144.552 550.172 144.714 550.094 144.849C549.583 145.802 542.625 158.365 531.719 144.49C528.01 139.776 526.891 135.776 527.245 132.672C527.443 130.906 528.125 129.422 529.078 128.266C530.042 127.104 531.286 126.26 532.609 125.771C534.714 125 537.057 125.089 538.885 126.151C541.818 127.854 543.854 131.214 544.573 134.318C544.802 135.333 544.901 136.323 544.844 137.229C544.781 138.188 544.552 139.057 544.135 139.771C543.604 140.693 542.781 141.349 541.651 141.615C540.672 141.839 539.776 141.787 538.969 141.537C537.708 141.151 536.693 140.287 535.927 139.24C535.203 138.229 534.698 137.037 534.438 135.922C534.188 134.833 534.177 133.797 534.406 133.042C534.547 132.573 535.042 132.313 535.51 132.453C535.974 132.599 536.24 133.094 536.094 133.563C535.953 134.016 535.984 134.729 536.161 135.526C536.375 136.427 536.776 137.391 537.365 138.198C537.917 138.969 538.635 139.583 539.484 139.849C540.01 140.01 540.604 140.037 541.26 139.891C541.875 139.745 542.313 139.385 542.604 138.885C542.875 138.417 543.031 137.807 543.078 137.12C543.12 136.38 543.047 135.563 542.849 134.708C542.229 132.021 540.484 129.13 538 127.688C536.63 126.891 534.854 126.833 533.224 127.432C532.177 127.818 531.203 128.484 530.448 129.391C529.693 130.302 529.156 131.469 529.005 132.875C528.698 135.552 529.729 139.099 533.109 143.396C541.99 154.693 547.646 145.609 548.448 144.162V73.4584ZM514.458 140C514.62 139.599 514.219 138.932 513.438 138.203C512.464 137.292 510.974 136.385 509.177 135.703C507.391 135.016 505.667 134.688 504.344 134.724C503.276 134.745 502.536 134.969 502.375 135.375C502.219 135.787 502.625 136.443 503.406 137.177C504.37 138.083 505.844 138.974 507.615 139.662C507.641 139.672 507.672 139.682 507.698 139.698C509.479 140.365 511.182 140.688 512.5 140.656C513.568 140.63 514.307 140.417 514.458 140ZM514.641 136.917C515.964 138.151 516.552 139.495 516.115 140.635C515.677 141.781 514.344 142.385 512.536 142.427C510.984 142.458 509.031 142.099 507.031 141.333C505.026 140.568 503.323 139.526 502.193 138.464C500.88 137.229 500.281 135.891 500.719 134.745C501.161 133.594 502.5 133 504.307 132.958C505.854 132.917 507.812 133.276 509.812 134.047C511.818 134.813 513.521 135.854 514.641 136.917ZM506.286 157.833C506.776 157.833 507.177 158.229 507.177 158.719C507.177 159.208 506.776 159.604 506.286 159.604L464.109 159.604C463.62 159.604 463.224 159.208 463.224 158.719C463.224 158.229 463.62 157.833 464.109 157.833L506.286 157.833ZM534.297 170.469C534.781 170.469 535.182 170.87 535.182 171.354C535.182 171.844 534.781 172.245 534.297 172.245L451.479 172.245C450.99 172.245 450.594 171.844 450.594 171.354C450.594 170.87 450.99 170.469 451.479 170.469L534.297 170.469ZM457.729 165.995C457.245 165.995 456.844 165.599 456.844 165.109C456.844 164.615 457.245 164.224 457.729 164.224L528.406 164.224C529.849 163.412 538.927 157.755 527.635 148.87C523.344 145.49 519.797 144.458 517.12 144.766C515.719 144.927 514.552 145.453 513.635 146.208C512.729 146.964 512.068 147.943 511.682 148.99C511.083 150.615 511.141 152.396 511.927 153.766C513.37 156.25 516.266 157.995 518.953 158.615C519.807 158.813 520.625 158.885 521.365 158.844C522.047 158.802 522.656 158.646 523.13 158.37C523.63 158.078 523.984 157.641 524.125 157.026C524.281 156.37 524.25 155.776 524.094 155.25C523.828 154.401 523.203 153.688 522.443 153.13C521.635 152.542 520.672 152.135 519.771 151.927C518.974 151.745 518.266 151.719 517.802 151.859C517.339 152.005 516.849 151.74 516.703 151.271C516.563 150.813 516.818 150.313 517.286 150.167C518.042 149.938 519.083 149.953 520.167 150.203C521.281 150.464 522.474 150.964 523.479 151.698C524.531 152.458 525.391 153.469 525.781 154.734C526.031 155.542 526.078 156.443 525.849 157.417C525.594 158.552 524.937 159.37 524.016 159.901C523.297 160.318 522.432 160.552 521.474 160.615C520.568 160.667 519.568 160.573 518.557 160.339C515.458 159.62 512.104 157.583 510.401 154.651C509.339 152.823 509.25 150.484 510.021 148.375C510.51 147.047 511.349 145.802 512.516 144.839C513.672 143.885 515.151 143.208 516.917 143.005C520.021 142.651 524.021 143.771 528.724 147.479C542.599 158.391 530.047 165.354 529.089 165.865C528.948 165.948 528.797 165.995 528.62 165.995L457.729 165.995ZM556.594 155.172V171.359C556.594 171.844 556.193 172.245 555.703 172.245H539.526C539.042 172.245 538.641 171.844 538.641 171.359V155.172C538.641 154.682 539.042 154.287 539.526 154.287H555.703C556.193 154.287 556.594 154.682 556.594 155.172Z" fill="#D9B765"/>
</g>
<g>
    <path d="M20.776 20.9948L20.776 35.4063H35.1771V20.9948L20.776 20.9948ZM31.6354 69.5469C31.6354 69.0573 32.0312 68.6615 32.5208 68.6615C33.0104 68.6615 33.4062 69.0573 33.4062 69.5469L33.4062 111.74C33.4062 112.224 33.0104 112.625 32.5208 112.625C32.0312 112.625 31.6354 112.224 31.6354 111.74L31.6354 69.5469ZM19.0521 41.4792C19.0521 40.9896 19.4427 40.5938 19.9375 40.5938C20.4271 40.5938 20.8229 40.9896 20.8229 41.4792L20.8229 124.333C20.8229 124.823 20.4271 125.219 19.9375 125.219C19.4427 125.219 19.0521 124.823 19.0521 124.333L19.0521 41.4792ZM60.5625 63.9323C62.3542 65.7188 64.1875 67.0938 65.7188 67.8698C66.974 68.5053 67.901 68.75 68.2083 68.4532C68.5156 68.1459 68.2708 67.2136 67.6302 65.9584C66.8542 64.4271 65.4896 62.5886 63.6927 60.7969C61.9062 59.0105 60.0729 57.6355 58.5417 56.8594C57.2865 56.224 56.3542 55.9792 56.0521 56.2813C55.7448 56.5886 55.9896 57.5157 56.625 58.7761C57.401 60.3021 58.776 62.1459 60.5625 63.9323ZM64.9219 69.448C63.2292 68.5886 61.224 67.1042 59.3125 65.1928C57.3906 63.2709 55.9063 61.2657 55.0469 59.5678C54.0469 57.6094 53.8906 55.9375 54.7969 55.0313C55.7031 54.125 57.3698 54.2865 59.3385 55.2813C61.026 56.1407 63.0313 57.6303 64.9479 59.5417C66.8646 61.4636 68.3542 63.4636 69.2135 65.1615C70.2031 67.125 70.375 68.7917 69.4635 69.7032C68.5573 70.6094 66.8854 70.448 64.9219 69.448ZM50.7188 59.599C51.8646 59.1563 53.1979 59.75 54.4323 61.0625C55.4948 62.1928 56.5365 63.9011 57.3021 65.9011C58.0677 67.9063 58.4323 69.8594 58.3958 71.4115C58.3542 73.2188 57.7552 74.5573 56.6042 75C55.4583 75.4323 54.125 74.8386 52.8854 73.5261C51.8281 72.3959 50.7917 70.6927 50.0208 68.6875C49.2552 66.6823 48.8906 64.7292 48.9271 63.1771C48.9688 61.3698 49.5677 60.0313 50.7188 59.599ZM53.151 62.2813C52.4167 61.4948 51.7552 61.0938 51.349 61.2553C50.9375 61.4063 50.7188 62.1459 50.6927 63.2136C50.6667 64.5417 50.9844 66.2657 51.6771 68.0625C52.3594 69.849 53.2656 71.3438 54.1771 72.3125C54.9063 73.0938 55.5729 73.5 55.974 73.3386C56.3854 73.1823 56.6042 72.4428 56.6302 71.375C56.6615 70.0573 56.3385 68.3542 55.6615 66.573C55.6562 66.5469 55.6406 66.5261 55.6354 66.4948C54.9479 64.724 54.0469 63.2448 53.151 62.2813ZM27.1458 118.005C27.1458 118.495 26.75 118.896 26.2604 118.896C25.7708 118.896 25.375 118.495 25.375 118.005L25.375 47.0782C25.375 46.9115 25.4219 46.75 25.5 46.6198C26.0104 45.6615 32.9687 33.1042 43.875 46.974C47.5833 51.6875 48.7031 55.6875 48.349 58.7969C48.151 60.5625 47.4687 62.0417 46.5156 63.2032C45.5521 64.3594 44.3073 65.2032 42.9844 65.6928C40.8802 66.4688 38.5365 66.375 36.7083 65.3178C33.776 63.6146 31.7396 60.2552 31.0208 57.1459C30.7917 56.1355 30.6927 55.1459 30.75 54.2344C30.8125 53.2813 31.0417 52.4063 31.4583 51.6927C31.9896 50.7761 32.8125 50.1198 33.9427 49.8542C34.9219 49.6302 35.8177 49.6771 36.625 49.9271C37.8854 50.3125 38.901 51.1771 39.6667 52.224C40.3906 53.2396 40.8958 54.4323 41.1562 55.5417C41.4062 56.6303 41.4167 57.6719 41.1875 58.4271C41.0469 58.8959 40.5521 59.1511 40.0833 59.0105C39.6198 58.8646 39.3542 58.3698 39.5 57.9011C39.6406 57.448 39.6094 56.7344 39.4323 55.9375C39.2187 55.0417 38.8177 54.0782 38.2292 53.2657C37.6771 52.5 36.9583 51.8855 36.1094 51.6198C35.5833 51.4584 34.9896 51.4271 34.3333 51.5782C33.7187 51.724 33.2812 52.0782 32.9896 52.5834C32.7187 53.0521 32.5625 53.6563 32.5156 54.349C32.474 55.0886 32.5469 55.9063 32.7448 56.7552C33.3646 59.4427 35.1094 62.3334 37.5938 63.7813C38.9635 64.5782 40.7396 64.6303 42.3698 64.0313C43.4167 63.6459 44.3906 62.9844 45.1458 62.0782C45.901 61.1615 46.4375 59.9948 46.5885 58.5938C46.8958 55.9115 45.8646 52.3646 42.4844 48.073C33.6042 36.7761 27.9479 45.8594 27.1458 47.3021L27.1458 118.005ZM61.1354 51.4636C60.974 51.8698 61.375 52.5313 62.1562 53.2657C63.1302 54.1719 64.6198 55.0782 66.4167 55.7657C68.2031 56.448 69.9271 56.7761 71.25 56.7396C72.3177 56.7188 73.0573 56.5 73.2188 56.0938C73.375 55.6823 72.9687 55.0261 72.1875 54.2917C71.224 53.3855 69.75 52.4896 67.9792 51.8073C67.9531 51.7917 67.9219 51.7865 67.8958 51.7709C66.1146 51.099 64.4115 50.7813 63.0938 50.8073C62.026 50.8334 61.2865 51.0521 61.1354 51.4636ZM60.9531 54.5521C59.6302 53.3125 59.0417 51.974 59.4792 50.8282C59.9167 49.6823 61.25 49.0834 63.0573 49.0417C64.6094 49.0053 66.5625 49.3698 68.5625 50.1303C70.5677 50.9011 72.2708 51.9375 73.401 53C74.7135 54.2344 75.3125 55.5782 74.875 56.724C74.4323 57.875 73.0937 58.4688 71.2865 58.5105C69.7396 58.5521 67.7812 58.1875 65.7812 57.4219C63.776 56.6511 62.0729 55.6094 60.9531 54.5521ZM69.3073 33.6355C68.8177 33.6355 68.4167 33.2344 68.4167 32.7448C68.4167 32.2605 68.8177 31.8594 69.3073 31.8594L111.484 31.8594C111.974 31.8594 112.37 32.2605 112.37 32.7448C112.37 33.2344 111.974 33.6355 111.484 33.6355L69.3073 33.6355ZM41.2969 20.9948C40.8125 20.9948 40.4115 20.599 40.4115 20.1094C40.4115 19.6198 40.8125 19.224 41.2969 19.224L124.115 19.224C124.604 19.224 125 19.6198 125 20.1094C125 20.599 124.604 20.9948 124.115 20.9948L41.2969 20.9948ZM117.865 25.4688C118.349 25.4688 118.75 25.8698 118.75 26.3594C118.75 26.8542 118.349 27.2448 117.865 27.2448L47.1875 27.2448C45.7448 28.0521 36.6667 33.7084 47.9583 42.599C52.25 45.974 55.7969 47.0105 58.474 46.7032C59.875 46.5417 61.0417 46.0105 61.9583 45.2553C62.8646 44.5053 63.526 43.5261 63.9115 42.4792C64.5104 40.8542 64.4531 39.073 63.6667 37.7032C62.224 35.2188 59.3281 33.474 56.6406 32.849C55.7865 32.6563 54.9688 32.5782 54.2292 32.6198C53.5469 32.6615 52.9375 32.823 52.4635 33.0938C51.9635 33.3855 51.6094 33.8282 51.4688 34.4428C51.3125 35.099 51.3437 35.6928 51.5 36.2136C51.7656 37.0678 52.3906 37.7813 53.151 38.3386C53.9583 38.9219 54.9219 39.3282 55.8229 39.5417C56.6198 39.7188 57.3281 39.75 57.7917 39.6094C58.2552 39.4636 58.7448 39.7292 58.8906 40.1928C59.0313 40.6563 58.776 41.1511 58.3073 41.2969C57.5521 41.5313 56.5104 41.5157 55.4271 41.2657C54.3125 41.0053 53.1198 40.5 52.1146 39.7709C51.0625 39.0105 50.2031 37.9948 49.8125 36.7344C49.5625 35.9219 49.5156 35.0209 49.7448 34.0521C50 32.9115 50.6563 32.099 51.5781 31.5678C52.2969 31.1459 53.1615 30.9167 54.1198 30.8542C55.026 30.7969 56.026 30.8959 57.0365 31.125C60.1354 31.8438 63.4896 33.8855 65.1927 36.8178C66.2552 38.6459 66.3438 40.9844 65.5729 43.0938C65.0833 44.4167 64.2448 45.6615 63.0781 46.625C61.9219 47.5834 60.4427 48.2605 58.6771 48.4636C55.5729 48.8178 51.5729 47.6928 46.8698 43.9844C32.9948 33.073 45.5469 26.1146 46.5052 25.6042C46.6458 25.5209 46.7969 25.4688 46.974 25.4688L117.865 25.4688ZM19 36.2917L19 20.1094C19 19.6198 19.401 19.224 19.8906 19.224L36.0677 19.224C36.5521 19.224 36.9531 19.6198 36.9531 20.1094L36.9531 36.2917C36.9531 36.7813 36.5521 37.1771 36.0677 37.1771L19.8906 37.1771C19.401 37.1771 19 36.7813 19 36.2917Z" fill="#D9B765"/>
</g>
<g>
<!-- <path d="M555.588 19.9375L134.484 19.9375" stroke="#D9B765" stroke-width="2" stroke-linecap="round"/> -->
<!-- <path d="M441.088 171.536L19.9894 171.536" stroke="#D9B765" stroke-width="2" stroke-linecap="round"/> -->
<!-- <path d="M555.594 19.9375L555.594 58.9063" stroke="#D9B765" stroke-width="2" stroke-linecap="round"/> -->
<!-- <path d="M19.9893 132.573L19.9893 171.542" stroke="#D9B765" stroke-width="2" stroke-linecap="round"/> -->
</g>
<!-- <g>
    <path d="M229.401 21.0833L230.531 37.8958L231.666 21.0833L248.479 19.9479L231.666 18.8177L230.531 2L229.401 18.8177L212.583 19.9479L229.401 21.0833Z" fill="#D9B765"/>
    <path d="M229.64 19.9479L223.453 27.0312L230.531 20.8437L237.614 27.0312L231.427 19.9479L237.614 12.8698L230.531 19.0573L223.453 12.8698L229.64 19.9479Z" fill="#D9B765"/>
</g> -->
<!-- <g>
<path d="M343.901 172.682L345.031 189.495L346.161 172.682L362.979 171.547L346.161 170.417L345.031 153.599L343.901 170.417L327.083 171.547L343.901 172.682Z" fill="#D9B765"/>
<path d="M344.14 171.547L337.948 178.63L345.031 172.443L352.114 178.63L345.927 171.547L352.114 164.469L345.031 170.656L337.948 164.469L344.14 171.547Z" fill="#D9B765"/>
</g> -->
<!-- <g>
<path d="M64.1771 133.672L61.8906 131.385L64.1771 129.099L66.4688 131.385L64.1771 133.672Z" fill="#D9B765"/>
<path d="M64.1769 118.411C64.1769 118.411 64.1873 118.516 64.203 118.703C64.2082 118.802 64.2186 118.917 64.229 119.052C64.2394 119.193 64.2498 119.349 64.2603 119.526C64.2811 119.88 64.3071 120.313 64.3384 120.807C64.3644 121.297 64.3905 121.859 64.4165 122.464C64.4269 122.771 64.4373 123.089 64.453 123.411C64.4634 123.74 64.4738 124.078 64.4842 124.427C64.505 125.125 64.5259 125.859 64.5415 126.62C64.5467 126.813 64.5519 127 64.5519 127.198C64.5571 127.391 64.5571 127.583 64.5623 127.776C64.5623 127.974 64.5675 128.172 64.5728 128.37C64.5728 128.563 64.5728 128.766 64.578 128.964C64.5832 129.76 64.5884 130.573 64.5884 131.385C64.5884 132.193 64.5832 133.005 64.578 133.802C64.5728 134.005 64.5728 134.203 64.5728 134.401C64.5675 134.594 64.5623 134.792 64.5623 134.99C64.5571 135.38 64.5519 135.766 64.5415 136.146C64.5259 136.906 64.505 137.641 64.4842 138.339C64.4738 138.688 64.4634 139.026 64.453 139.354C64.4373 139.682 64.4269 139.995 64.4165 140.302C64.4009 140.604 64.3905 140.896 64.3748 141.172C64.3592 141.453 64.3488 141.714 64.3384 141.964C64.3071 142.453 64.2811 142.885 64.2603 143.24C64.2498 143.417 64.2394 143.578 64.229 143.714C64.2186 143.849 64.2082 143.969 64.203 144.063C64.1873 144.25 64.1769 144.354 64.1769 144.354C64.1769 144.354 64.1717 144.25 64.1561 144.063C64.1457 143.969 64.1405 143.849 64.1248 143.714C64.1196 143.578 64.1092 143.417 64.0936 143.24C64.0728 142.885 64.0467 142.453 64.0207 141.964C64.005 141.714 63.9946 141.448 63.979 141.172C63.9686 140.896 63.953 140.604 63.9425 140.302C63.9321 139.995 63.9165 139.677 63.9061 139.354C63.8905 139.026 63.88 138.688 63.8696 138.339C63.8488 137.641 63.8332 136.906 63.8175 136.146C63.8071 135.766 63.8019 135.38 63.7967 134.99C63.7915 134.792 63.7915 134.594 63.7863 134.401C63.7863 134.203 63.7811 134.005 63.7811 133.802C63.7707 133.005 63.7707 132.193 63.7707 131.385C63.7707 130.573 63.7707 129.76 63.7811 128.964C63.7811 128.766 63.7863 128.563 63.7863 128.37C63.7915 128.172 63.7915 127.974 63.7967 127.776C63.7967 127.583 63.8019 127.385 63.8019 127.198C63.8071 127 63.8123 126.813 63.8175 126.62C63.8332 125.859 63.8488 125.125 63.8696 124.427C63.88 124.078 63.8905 123.74 63.9061 123.411C63.9165 123.083 63.9269 122.771 63.9425 122.464C63.9686 121.859 63.9946 121.297 64.0207 120.807C64.0467 120.313 64.0728 119.88 64.0936 119.526C64.1092 119.349 64.1196 119.193 64.1248 119.052C64.1353 118.917 64.1457 118.797 64.1561 118.703C64.1717 118.516 64.1769 118.411 64.1769 118.411Z" fill="#D9B765"/>
<path d="M51.208 131.385C51.208 131.385 51.307 131.375 51.4945 131.359C51.5934 131.354 51.708 131.344 51.8434 131.333C51.984 131.323 52.1403 131.312 52.3174 131.302C52.6768 131.281 53.1038 131.255 53.5986 131.229C54.0934 131.203 54.6507 131.177 55.2601 131.146C55.5622 131.135 55.8799 131.125 56.208 131.109C56.5361 131.099 56.8747 131.088 57.2236 131.078C57.9215 131.057 58.6507 131.036 59.4163 131.021C59.6038 131.021 59.7965 131.016 59.9893 131.01C60.182 131.005 60.3747 131.005 60.5726 131C60.7653 131 60.9632 130.995 61.1611 130.995C61.359 130.99 61.557 130.99 61.7549 130.984C62.5518 130.979 63.3643 130.974 64.1768 130.974C64.9893 130.974 65.7965 130.979 66.5986 130.984C66.7965 130.99 66.9945 130.99 67.1924 130.995C67.3903 130.995 67.5882 131 67.7809 131C68.1715 131.005 68.557 131.016 68.9372 131.021C69.6976 131.036 70.432 131.057 71.1299 131.078C71.4788 131.089 71.8174 131.099 72.1455 131.109C72.4736 131.125 72.7913 131.135 73.0934 131.146C73.4007 131.161 73.6872 131.177 73.9684 131.187C74.2445 131.203 74.5101 131.213 74.7549 131.229C75.2497 131.255 75.682 131.281 76.0309 131.302C76.208 131.312 76.3695 131.323 76.5049 131.333C76.6455 131.344 76.7601 131.354 76.8538 131.359C77.0465 131.375 77.1455 131.385 77.1455 131.385C77.1455 131.385 77.0465 131.391 76.8538 131.411C76.7601 131.417 76.6455 131.422 76.5049 131.437C76.3695 131.443 76.208 131.458 76.0309 131.469C75.6768 131.49 75.2497 131.516 74.7549 131.542C74.5049 131.557 74.2445 131.568 73.9684 131.583C73.6872 131.594 73.4007 131.609 73.0934 131.62C72.7913 131.635 72.4736 131.646 72.1455 131.661C71.8174 131.672 71.4788 131.682 71.1299 131.693C70.432 131.713 69.6976 131.734 68.9372 131.75C68.557 131.755 68.1715 131.76 67.7809 131.766C67.5882 131.771 67.3903 131.776 67.1924 131.776C66.9945 131.781 66.7965 131.781 66.5986 131.781C65.7965 131.792 64.9893 131.797 64.1768 131.797C63.3643 131.797 62.5518 131.792 61.7549 131.781C61.557 131.781 61.359 131.781 61.1611 131.776C60.9632 131.776 60.7653 131.771 60.5726 131.766C60.3747 131.766 60.182 131.76 59.9893 131.76C59.7965 131.755 59.6038 131.75 59.4163 131.75C58.6507 131.734 57.9215 131.713 57.2236 131.693C56.8747 131.682 56.5361 131.672 56.208 131.661C55.8799 131.646 55.5622 131.635 55.2601 131.62C54.6507 131.594 54.0934 131.568 53.5986 131.542C53.1038 131.516 52.6715 131.49 52.3174 131.469C52.1403 131.458 51.984 131.443 51.8434 131.437C51.708 131.427 51.5882 131.417 51.4945 131.411C51.307 131.396 51.208 131.385 51.208 131.385Z" fill="#D9B765"/>
<path d="M58.4007 125.604C58.4007 125.604 58.4528 125.646 58.5465 125.719C58.5934 125.755 58.6507 125.802 58.7184 125.854C58.7861 125.911 58.8695 125.969 58.9528 126.042C59.1299 126.182 59.3382 126.359 59.5778 126.557C59.8174 126.76 60.083 126.99 60.3695 127.245C60.5153 127.37 60.6663 127.5 60.8226 127.641C60.9736 127.776 61.1299 127.922 61.2965 128.068C61.3799 128.141 61.4632 128.214 61.5413 128.292C61.6247 128.37 61.708 128.448 61.7965 128.521C61.9632 128.677 62.1351 128.839 62.3122 129.005C63.0101 129.661 63.7445 130.37 64.4684 131.094C64.8278 131.453 65.1872 131.818 65.5361 132.177C65.8903 132.542 66.2288 132.901 66.557 133.25C66.8851 133.599 67.1976 133.937 67.4945 134.266C67.6403 134.427 67.7861 134.583 67.9215 134.74C68.057 134.896 68.1924 135.047 68.3174 135.187C68.4424 135.333 68.5674 135.474 68.6768 135.604C68.7913 135.74 68.9007 135.865 68.9997 135.984C69.2028 136.224 69.3799 136.432 69.5205 136.609C69.5882 136.698 69.6507 136.776 69.708 136.844C69.7601 136.911 69.807 136.974 69.8434 137.021C69.9163 137.115 69.958 137.167 69.958 137.167C69.958 137.167 69.9059 137.125 69.8122 137.052C69.7601 137.016 69.7028 136.969 69.6351 136.917C69.5674 136.859 69.4893 136.797 69.4007 136.729C69.2236 136.589 69.0153 136.411 68.7757 136.214C68.6559 136.109 68.5309 136.005 68.3955 135.891C68.2653 135.776 68.1247 135.651 67.9788 135.526C67.8382 135.401 67.6872 135.271 67.5309 135.13C67.3799 134.995 67.2184 134.849 67.057 134.703C66.7288 134.406 66.3903 134.094 66.0413 133.766C65.6872 133.437 65.333 133.094 64.9684 132.745C64.609 132.396 64.2445 132.036 63.8851 131.677C63.1663 130.953 62.4528 130.219 61.7965 129.521C61.6299 129.344 61.4684 129.172 61.3122 129.005C61.234 128.922 61.1559 128.833 61.083 128.75C61.0049 128.672 60.932 128.589 60.859 128.505C60.7132 128.344 60.5674 128.187 60.432 128.031C60.2913 127.875 60.1611 127.724 60.0309 127.578C59.7809 127.292 59.5518 127.026 59.3486 126.786C59.1507 126.547 58.9736 126.339 58.833 126.161C58.7601 126.078 58.6976 126 58.6455 125.932C58.5934 125.865 58.5465 125.802 58.5101 125.755C58.4372 125.656 58.4007 125.604 58.4007 125.604Z" fill="#D9B765"/>
<path d="M69.958 125.609C69.958 125.609 69.9215 125.656 69.8486 125.755C69.8122 125.802 69.7653 125.859 69.708 125.927C69.6559 125.995 69.5934 126.073 69.5205 126.161C69.3799 126.333 69.208 126.547 69.0049 126.786C68.807 127.021 68.5726 127.292 68.3226 127.578C68.1976 127.724 68.0622 127.87 67.9268 128.026C67.7913 128.182 67.6455 128.338 67.4997 128.505C67.4268 128.588 67.3486 128.667 67.2705 128.75C67.1976 128.833 67.1195 128.917 67.0413 129C66.8851 129.172 66.7236 129.344 66.5622 129.521C65.9059 130.219 65.1924 130.953 64.4684 131.672C64.109 132.036 63.7445 132.396 63.3851 132.745C63.0257 133.094 62.6663 133.437 62.3174 133.766C61.9684 134.094 61.6299 134.406 61.3018 134.703C61.1351 134.849 60.9788 134.995 60.8226 135.13C60.6663 135.266 60.5205 135.401 60.3747 135.526C60.2288 135.651 60.0934 135.776 59.958 135.885C59.8226 136 59.6976 136.109 59.5778 136.208C59.3382 136.411 59.1299 136.583 58.958 136.724C58.8695 136.797 58.7913 136.859 58.7184 136.911C58.6507 136.969 58.5934 137.01 58.5465 137.052C58.4528 137.125 58.4007 137.161 58.4007 137.161C58.4007 137.161 58.4372 137.115 58.5101 137.016C58.5518 136.969 58.5934 136.911 58.6507 136.844C58.7028 136.771 58.7653 136.698 58.8382 136.609C58.9788 136.432 59.1507 136.224 59.3538 135.984C59.4528 135.865 59.5622 135.74 59.6768 135.604C59.7913 135.469 59.9111 135.333 60.0361 135.187C60.1611 135.042 60.2965 134.896 60.432 134.74C60.5726 134.583 60.7132 134.427 60.859 134.26C61.1559 133.937 61.4736 133.594 61.7965 133.245C62.1247 132.896 62.4684 132.536 62.8174 132.177C63.1715 131.818 63.5257 131.453 63.8903 131.094C64.6143 130.37 65.3434 129.656 66.0465 129C66.2184 128.838 66.3903 128.677 66.5622 128.521C66.6455 128.443 66.7288 128.365 66.8122 128.292C66.8955 128.213 66.9788 128.141 67.057 128.062C67.2236 127.917 67.3799 127.776 67.5361 127.635C67.6924 127.5 67.8382 127.365 67.984 127.24C68.2757 126.99 68.5413 126.76 68.7809 126.557C69.0153 126.354 69.2288 126.182 69.4007 126.042C69.4893 125.969 69.5674 125.906 69.6351 125.854C69.7028 125.797 69.7601 125.75 69.8122 125.713C69.9111 125.646 69.958 125.609 69.958 125.609Z" fill="#D9B765"/>
</g> -->
<!-- <g>
<path d="M78.1298 117.891L76.3589 116.125L78.1298 114.359L79.8954 116.125L78.1298 117.891Z" fill="#D9B765"/>
<path d="M68.1038 116.125C68.1038 116.125 68.1871 116.12 68.3329 116.104C68.4058 116.099 68.4944 116.094 68.6038 116.083C68.7079 116.078 68.8329 116.068 68.9683 116.057C69.2444 116.042 69.5725 116.021 69.9579 116C70.3381 115.979 70.7704 115.958 71.2392 115.943C71.4736 115.932 71.7183 115.922 71.9683 115.911C72.2236 115.906 72.484 115.896 72.7548 115.885C73.2965 115.87 73.8642 115.854 74.4475 115.844C74.5933 115.839 74.7444 115.839 74.8902 115.833C75.0413 115.833 75.1871 115.833 75.3433 115.828C75.4944 115.823 75.6454 115.823 75.7965 115.818C75.9475 115.818 76.1038 115.818 76.26 115.813C76.8746 115.807 77.4996 115.802 78.1246 115.802C78.7496 115.802 79.3798 115.807 79.9944 115.813C80.1506 115.818 80.3017 115.818 80.4527 115.818C80.609 115.823 80.76 115.823 80.9111 115.828C81.2131 115.833 81.51 115.833 81.8069 115.844C82.3954 115.854 82.9579 115.87 83.4996 115.885C83.7652 115.896 84.0308 115.901 84.2808 115.911C84.5361 115.922 84.7808 115.932 85.0152 115.938C85.2496 115.953 85.4736 115.958 85.6871 115.969C85.9006 115.979 86.1038 115.99 86.2965 116C86.6767 116.021 87.01 116.042 87.2861 116.057C87.4215 116.068 87.5465 116.073 87.6506 116.083C87.76 116.089 87.8486 116.099 87.9215 116.104C88.0673 116.115 88.1454 116.12 88.1454 116.12C88.1454 116.12 88.0673 116.125 87.9215 116.141C87.8486 116.146 87.76 116.151 87.6506 116.161C87.5465 116.167 87.4215 116.177 87.2861 116.188C87.01 116.203 86.6767 116.224 86.2965 116.245C86.1038 116.255 85.9006 116.266 85.6871 116.276C85.4736 116.281 85.2496 116.292 85.0152 116.302C84.7808 116.313 84.5361 116.323 84.2808 116.333C84.0308 116.344 83.7652 116.349 83.4996 116.359C82.9579 116.375 82.3902 116.391 81.8069 116.401C81.51 116.411 81.2131 116.411 80.9111 116.417C80.76 116.417 80.609 116.422 80.4527 116.422C80.3017 116.427 80.1506 116.427 79.9944 116.432C79.3798 116.438 78.7496 116.438 78.1246 116.438C77.4996 116.438 76.8746 116.438 76.26 116.432C76.1038 116.427 75.9475 116.427 75.7965 116.422C75.6454 116.422 75.4944 116.422 75.3433 116.417C75.1923 116.417 75.0413 116.411 74.8902 116.411C74.7444 116.406 74.5933 116.401 74.4475 116.401C73.859 116.391 73.2913 116.375 72.7548 116.354C72.4892 116.349 72.2236 116.339 71.9683 116.328C71.7183 116.323 71.4736 116.313 71.2392 116.302C70.7704 116.281 70.3381 116.26 69.9579 116.24C69.5725 116.219 69.2444 116.203 68.9683 116.182C68.8329 116.172 68.7079 116.167 68.6038 116.161C68.4944 116.151 68.4058 116.146 68.3329 116.141C68.1871 116.13 68.1038 116.125 68.1038 116.125Z" fill="#D9B765"/>
<path d="M78.1247 106.104C78.1247 106.104 78.1299 106.182 78.1456 106.328C78.1508 106.401 78.156 106.49 78.1664 106.599C78.1716 106.708 78.182 106.828 78.1924 106.964C78.2081 107.24 78.2289 107.573 78.2497 107.953C78.2706 108.333 78.2914 108.766 78.307 109.234C78.3174 109.469 78.3279 109.714 78.3383 109.969C78.3487 110.224 78.3539 110.484 78.3643 110.755C78.3799 111.292 78.3956 111.859 78.406 112.443C78.4112 112.594 78.4164 112.74 78.4164 112.891C78.4164 113.037 78.4216 113.188 78.4216 113.339C78.4268 113.49 78.4268 113.641 78.432 113.797C78.432 113.948 78.432 114.099 78.4372 114.255C78.4424 114.87 78.4476 115.5 78.4476 116.125C78.4476 116.75 78.4424 117.375 78.4372 117.99C78.432 118.146 78.432 118.302 78.432 118.453C78.4268 118.604 78.4268 118.755 78.4216 118.906C78.4216 119.208 78.4164 119.51 78.406 119.802C78.3956 120.391 78.3799 120.958 78.3643 121.495C78.3539 121.76 78.3487 122.026 78.3383 122.281C78.3279 122.531 78.3226 122.776 78.3122 123.01C78.3018 123.245 78.2914 123.474 78.281 123.688C78.2706 123.901 78.2601 124.104 78.2497 124.292C78.2289 124.677 78.2133 125.01 78.1924 125.281C78.182 125.417 78.1768 125.542 78.1664 125.646C78.1612 125.755 78.1508 125.844 78.1456 125.917C78.1351 126.063 78.1299 126.146 78.1299 126.146C78.1299 126.146 78.1247 126.063 78.1091 125.917C78.1039 125.844 78.0987 125.755 78.0883 125.646C78.0831 125.542 78.0726 125.417 78.0622 125.281C78.0466 125.01 78.0258 124.677 78.0049 124.292C77.9945 124.104 77.9841 123.901 77.9789 123.688C77.9685 123.474 77.9581 123.245 77.9476 123.01C77.9372 122.776 77.9268 122.531 77.9164 122.281C77.9112 122.026 77.9008 121.766 77.8904 121.495C77.8747 120.953 77.8591 120.391 77.8487 119.802C77.8435 119.51 77.8383 119.208 77.8331 118.906C77.8331 118.76 77.8279 118.604 77.8279 118.453C77.8226 118.302 77.8226 118.146 77.8226 117.99C77.8174 117.375 77.8122 116.75 77.8122 116.125C77.8122 115.5 77.8174 114.87 77.8226 114.255C77.8226 114.099 77.8226 113.948 77.8279 113.797C77.8279 113.641 77.8279 113.49 77.8331 113.339C77.8331 113.188 77.8383 113.037 77.8435 112.891C77.8435 112.74 77.8487 112.594 77.8487 112.443C77.8643 111.859 77.8747 111.292 77.8956 110.755C77.9008 110.484 77.9112 110.224 77.9216 109.969C77.932 109.714 77.9372 109.469 77.9476 109.234C77.9685 108.766 77.9893 108.339 78.0101 107.953C78.031 107.573 78.0466 107.24 78.0674 106.964C78.0779 106.828 78.0831 106.708 78.0935 106.599C78.0987 106.49 78.1039 106.401 78.1091 106.328C78.1195 106.182 78.1247 106.104 78.1247 106.104Z" fill="#D9B765"/>
<path d="M73.6613 111.656C73.6613 111.656 73.703 111.688 73.7759 111.745C73.8124 111.776 73.8593 111.812 73.9113 111.854C73.9634 111.896 74.0259 111.943 74.0936 112C74.2291 112.109 74.3905 112.24 74.5728 112.396C74.7551 112.552 74.9634 112.729 75.1874 112.927C75.2968 113.021 75.4113 113.125 75.5311 113.234C75.6561 113.339 75.7759 113.448 75.9009 113.562C75.9634 113.62 76.0259 113.677 76.0936 113.734C76.1561 113.797 76.2238 113.854 76.2863 113.917C76.4218 114.036 76.552 114.161 76.6874 114.286C77.2291 114.792 77.7968 115.344 78.3541 115.901C78.6301 116.182 78.9061 116.464 79.177 116.74C79.4478 117.021 79.7134 117.297 79.9634 117.568C80.2186 117.839 80.4634 118.099 80.6926 118.354C80.802 118.479 80.9166 118.599 81.0207 118.719C81.1249 118.839 81.2291 118.953 81.328 119.068C81.4218 119.182 81.5207 119.286 81.6041 119.391C81.6926 119.495 81.7759 119.589 81.8541 119.682C82.0103 119.865 82.1457 120.031 82.2551 120.167C82.3072 120.234 82.3593 120.292 82.4009 120.344C82.4426 120.396 82.4738 120.443 82.5051 120.479C82.5624 120.552 82.5936 120.594 82.5936 120.594C82.5936 120.594 82.552 120.563 82.4791 120.505C82.4426 120.474 82.3957 120.443 82.3436 120.396C82.2916 120.354 82.2343 120.307 82.1666 120.255C82.0311 120.146 81.8697 120.01 81.6822 119.854C81.5884 119.776 81.4895 119.693 81.3905 119.604C81.2863 119.516 81.177 119.422 81.0676 119.323C80.953 119.229 80.8384 119.125 80.7186 119.021C80.5988 118.911 80.4791 118.802 80.3541 118.688C80.0988 118.464 79.8384 118.219 79.5676 117.964C79.2968 117.708 79.0207 117.448 78.7447 117.177C78.4634 116.906 78.1822 116.625 77.9009 116.349C77.3436 115.792 76.7968 115.224 76.2916 114.682C76.1666 114.547 76.0363 114.417 75.9166 114.281C75.8593 114.219 75.7968 114.156 75.7395 114.089C75.6822 114.026 75.6249 113.958 75.5676 113.896C75.453 113.771 75.3384 113.651 75.2343 113.526C75.1301 113.406 75.0259 113.292 74.927 113.182C74.7343 112.958 74.5572 112.75 74.4009 112.568C74.2447 112.385 74.1145 112.219 73.9999 112.089C73.9478 112.021 73.8957 111.958 73.8541 111.906C73.8176 111.854 73.7811 111.807 73.7499 111.771C73.6926 111.698 73.6613 111.656 73.6613 111.656Z" fill="#D9B765"/>
<path d="M82.5936 111.661C82.5936 111.661 82.5624 111.698 82.5051 111.771C82.4738 111.813 82.4426 111.854 82.3957 111.906C82.3541 111.958 82.3072 112.021 82.2499 112.089C82.1457 112.224 82.0103 112.385 81.8541 112.568C81.6978 112.755 81.5207 112.958 81.3228 113.182C81.2291 113.297 81.1249 113.411 81.0207 113.531C80.9113 113.651 80.802 113.771 80.6874 113.896C80.6301 113.964 80.5728 114.026 80.5155 114.089C80.453 114.156 80.3957 114.219 80.3332 114.286C80.2134 114.417 80.0936 114.552 79.9634 114.688C79.4582 115.224 78.9061 115.792 78.3488 116.349C78.0676 116.63 77.7863 116.906 77.5103 117.177C77.2291 117.448 76.953 117.708 76.6822 117.964C76.4113 118.214 76.1509 118.458 75.8957 118.688C75.7707 118.802 75.6509 118.911 75.5311 119.016C75.4113 119.125 75.2968 119.224 75.1822 119.323C75.0676 119.422 74.9634 119.516 74.8593 119.604C74.7603 119.693 74.6613 119.776 74.5676 119.854C74.3853 120.01 74.2186 120.141 74.0832 120.25C74.0155 120.307 73.9582 120.354 73.9061 120.396C73.8541 120.438 73.8072 120.474 73.7707 120.505C73.6978 120.557 73.6561 120.589 73.6561 120.589C73.6561 120.589 73.6874 120.552 73.7447 120.474C73.7759 120.438 73.8072 120.396 73.8541 120.344C73.8957 120.286 73.9426 120.229 73.9999 120.161C74.1041 120.026 74.2395 119.865 74.3957 119.677C74.4738 119.589 74.5572 119.49 74.6457 119.385C74.7343 119.281 74.828 119.177 74.927 119.063C75.0207 118.953 75.1249 118.839 75.2291 118.719C75.3384 118.599 75.4478 118.474 75.5624 118.349C75.7863 118.099 76.0311 117.833 76.2863 117.563C76.5416 117.292 76.802 117.016 77.0728 116.74C77.3436 116.464 77.6249 116.182 77.9009 115.901C78.4582 115.344 79.0259 114.792 79.5676 114.286C79.703 114.161 79.8332 114.036 79.9686 113.917C80.0311 113.854 80.0988 113.797 80.1613 113.734C80.2238 113.677 80.2916 113.62 80.3541 113.563C80.4791 113.448 80.6041 113.339 80.7238 113.234C80.8436 113.125 80.9582 113.021 81.0676 112.927C81.2916 112.729 81.4999 112.552 81.6822 112.396C81.8697 112.24 82.0311 112.109 82.1666 112C82.2343 111.943 82.2916 111.896 82.3436 111.854C82.3957 111.813 82.4426 111.776 82.4791 111.745C82.552 111.688 82.5936 111.661 82.5936 111.661Z" fill="#D9B765"/>
</g> -->
<!-- <g>
<path d="M511.406 57.7969L513.692 60.0833L511.406 62.3698L509.114 60.0833L511.406 57.7969Z" fill="#FFFFFF"/>
<path d="M524.38 60.0833C524.38 60.0833 524.276 60.0885 524.088 60.1094C523.989 60.1146 523.875 60.125 523.739 60.1354C523.598 60.1458 523.442 60.1563 523.265 60.1667C522.911 60.1875 522.479 60.2135 521.984 60.2396C521.489 60.2656 520.932 60.2917 520.328 60.3177C520.02 60.3333 519.703 60.3437 519.375 60.3594C519.046 60.3698 518.708 60.3802 518.359 60.3906C517.666 60.4115 516.932 60.4323 516.171 60.4479C515.979 60.4479 515.786 60.4531 515.593 60.4583C515.401 60.4635 515.208 60.4635 515.015 60.4688C514.817 60.4687 514.619 60.474 514.421 60.474C514.223 60.4792 514.026 60.4792 513.828 60.4792C513.031 60.4896 512.218 60.4948 511.406 60.4948C510.598 60.4948 509.786 60.4896 508.989 60.4792C508.786 60.4792 508.588 60.4792 508.39 60.474C508.192 60.474 508 60.4687 507.802 60.4687C507.411 60.4635 507.026 60.4531 506.645 60.4479C505.885 60.4323 505.151 60.4115 504.453 60.3906C504.104 60.3802 503.765 60.3698 503.437 60.3594C503.109 60.3437 502.791 60.3333 502.489 60.3177C502.187 60.3073 501.895 60.2917 501.614 60.2812C501.338 60.2656 501.078 60.2552 500.828 60.2396C500.333 60.2135 499.906 60.1875 499.552 60.1667C499.375 60.1563 499.213 60.1458 499.078 60.1354C498.942 60.125 498.822 60.1146 498.729 60.1094C498.536 60.0937 498.437 60.0833 498.437 60.0833C498.437 60.0833 498.536 60.0781 498.729 60.0573C498.822 60.0521 498.942 60.0417 499.078 60.0312C499.213 60.0208 499.375 60.0104 499.552 60C499.906 59.974 500.333 59.9531 500.828 59.9271C501.078 59.9115 501.338 59.901 501.614 59.8854C501.895 59.875 502.187 59.8594 502.489 59.849C502.791 59.8333 503.109 59.8229 503.437 59.8073C503.765 59.7969 504.104 59.7865 504.453 59.776C505.151 59.7552 505.885 59.7344 506.645 59.7187C507.026 59.7135 507.411 59.7083 507.802 59.6979C508 59.6979 508.192 59.6927 508.39 59.6927C508.588 59.6875 508.786 59.6875 508.989 59.6875C509.786 59.6771 510.598 59.6719 511.406 59.6719C512.218 59.6719 513.031 59.6771 513.828 59.6875C514.026 59.6875 514.223 59.6875 514.421 59.6927C514.619 59.6927 514.817 59.6979 515.015 59.6979C515.208 59.7031 515.406 59.7083 515.593 59.7083C515.786 59.7135 515.979 59.7187 516.171 59.7188C516.932 59.7344 517.666 59.7552 518.359 59.776C518.708 59.7865 519.046 59.7969 519.375 59.8073C519.708 59.8229 520.02 59.8333 520.328 59.849C520.932 59.875 521.489 59.901 521.984 59.9271C522.479 59.9531 522.911 59.9792 523.265 60C523.442 60.0104 523.598 60.0208 523.739 60.0312C523.875 60.0417 523.994 60.0521 524.088 60.0573C524.276 60.0729 524.38 60.0833 524.38 60.0833Z" fill="#D9B765"/>
<path d="M511.406 73.0573C511.406 73.0573 511.396 72.9532 511.38 72.7657C511.375 72.6667 511.364 72.5521 511.354 72.4167C511.344 72.2761 511.333 72.1198 511.323 71.9427C511.302 71.5886 511.276 71.1563 511.25 70.6615C511.224 70.1719 511.198 69.6094 511.167 69.0052C511.156 68.698 511.146 68.3803 511.13 68.0573C511.12 67.724 511.109 67.3907 511.099 67.0417C511.078 66.3438 511.057 65.6094 511.042 64.849C511.042 64.6563 511.036 64.4688 511.031 64.2709C511.026 64.0782 511.026 63.8855 511.021 63.6927C511.021 63.4948 511.015 63.2969 511.015 63.099C511.01 62.9063 511.01 62.7032 511.005 62.5052C511 61.7084 510.995 60.8959 510.995 60.0834C510.995 59.2761 511 58.4636 511.005 57.6667C511.01 57.4636 511.01 57.2657 511.015 57.0677C511.015 56.8698 511.021 56.6771 511.021 56.4792C511.026 56.0886 511.036 55.7032 511.042 55.323C511.057 54.5625 511.078 53.8282 511.099 53.1302C511.109 52.7813 511.12 52.4427 511.13 52.1146C511.146 51.7865 511.156 51.474 511.167 51.1667C511.182 50.8646 511.198 50.573 511.208 50.2917C511.224 50.0157 511.234 49.7552 511.25 49.5052C511.276 49.0157 511.302 48.5834 511.323 48.2292C511.333 48.0521 511.344 47.8907 511.354 47.7552C511.364 47.6198 511.375 47.5 511.38 47.4063C511.396 47.2188 511.406 47.1146 511.406 47.1146C511.406 47.1146 511.411 47.2188 511.432 47.4063C511.437 47.5 511.443 47.6198 511.458 47.7552C511.463 47.8907 511.479 48.0521 511.489 48.2292C511.51 48.5834 511.536 49.0157 511.562 49.5052C511.578 49.7552 511.588 50.0157 511.604 50.2917C511.614 50.573 511.63 50.8646 511.64 51.1667C511.651 51.474 511.667 51.7865 511.682 52.1146C511.693 52.4427 511.703 52.7813 511.713 53.1302C511.734 53.8282 511.755 54.5625 511.765 55.323C511.776 55.7032 511.781 56.0886 511.786 56.4792C511.792 56.6771 511.797 56.8698 511.797 57.0677C511.802 57.2657 511.802 57.4636 511.802 57.6667C511.812 58.4636 511.812 59.2761 511.812 60.0834C511.812 60.8959 511.812 61.7084 511.802 62.5052C511.802 62.7032 511.802 62.9063 511.797 63.099C511.797 63.2969 511.792 63.4948 511.786 63.6927C511.786 63.8855 511.781 64.0834 511.781 64.2709C511.776 64.4688 511.771 64.6563 511.765 64.849C511.755 65.6094 511.734 66.3438 511.713 67.0417C511.703 67.3907 511.693 67.724 511.682 68.0573C511.667 68.3855 511.656 68.698 511.64 69.0052C511.614 69.6094 511.588 70.1719 511.562 70.6615C511.536 71.1563 511.51 71.5886 511.489 71.9427C511.479 72.1198 511.463 72.2761 511.458 72.4167C511.448 72.5521 511.437 72.6719 511.432 72.7657C511.411 72.9532 511.406 73.0573 511.406 73.0573Z" fill="#D9B765"/>
<path d="M517.182 65.8646C517.182 65.8646 517.135 65.823 517.036 65.75C516.989 65.7136 516.932 65.6667 516.864 65.6146C516.797 65.5573 516.718 65.4948 516.63 65.4271C516.453 65.2865 516.244 65.1094 516.005 64.9115C515.765 64.7084 515.5 64.4792 515.213 64.224C515.067 64.099 514.916 63.9688 514.765 63.8282C514.609 63.6927 514.453 63.5469 514.286 63.4011C514.203 63.3282 514.125 63.2552 514.041 63.1771C513.958 63.099 513.875 63.0209 513.786 62.948C513.619 62.7917 513.448 62.6302 513.271 62.4636C512.573 61.8073 511.838 61.099 511.114 60.375C510.755 60.0157 510.396 59.6511 510.047 59.2917C509.692 58.9271 509.354 58.5677 509.026 58.2188C508.698 57.8698 508.385 57.5313 508.088 57.2032C507.942 57.0417 507.797 56.8855 507.661 56.7292C507.526 56.573 507.39 56.4219 507.265 56.2813C507.14 56.1355 507.015 55.9948 506.906 55.8646C506.791 55.7292 506.682 55.6042 506.583 55.4844C506.38 55.2448 506.208 55.0365 506.067 54.8594C505.994 54.7709 505.932 54.6927 505.875 54.625C505.823 54.5573 505.776 54.4948 505.739 54.448C505.666 54.3542 505.625 54.3021 505.625 54.3021C505.625 54.3021 505.677 54.3438 505.776 54.4167C505.823 54.4532 505.88 54.5 505.948 54.5521C506.015 54.6094 506.093 54.6719 506.182 54.7396C506.359 54.8802 506.567 55.0573 506.807 55.2552C506.927 55.3594 507.052 55.4636 507.187 55.5782C507.317 55.6927 507.458 55.8177 507.604 55.9427C507.75 56.0677 507.896 56.198 508.052 56.3386C508.208 56.474 508.364 56.6198 508.531 56.7657C508.854 57.0625 509.198 57.375 509.547 57.7032C509.896 58.0313 510.255 58.375 510.614 58.724C510.974 59.073 511.338 59.4323 511.698 59.7917C512.422 60.5157 513.135 61.25 513.786 61.948C513.953 62.125 514.114 62.2969 514.271 62.4636C514.349 62.5469 514.427 62.6355 514.5 62.7188C514.578 62.7969 514.651 62.8802 514.724 62.9636C514.869 63.125 515.015 63.2813 515.156 63.4375C515.291 63.5938 515.422 63.7448 515.552 63.8907C515.802 64.1771 516.031 64.4428 516.234 64.6823C516.432 64.9219 516.609 65.1303 516.75 65.3073C516.823 65.3907 516.885 65.4688 516.937 65.5365C516.994 65.6042 517.041 65.6667 517.073 65.7136C517.146 65.8125 517.182 65.8646 517.182 65.8646Z" fill="#D9B765"/>
<path d="M505.625 65.8595C505.625 65.8595 505.661 65.8126 505.734 65.7136C505.776 65.6667 505.817 65.6095 505.875 65.5417C505.927 65.474 505.989 65.3959 506.062 65.3074C506.203 65.1355 506.375 64.922 506.578 64.6824C506.781 64.448 507.01 64.1772 507.26 63.8907C507.385 63.7449 507.521 63.599 507.656 63.4428C507.797 63.2865 507.937 63.1303 508.083 62.9636C508.161 62.8803 508.234 62.8022 508.312 62.7188C508.385 62.6355 508.463 62.5522 508.541 62.4688C508.698 62.297 508.859 62.1251 509.021 61.948C509.677 61.2501 510.39 60.5157 511.114 59.797C511.474 59.4324 511.838 59.073 512.198 58.724C512.557 58.3751 512.916 58.0313 513.265 57.7032C513.614 57.3751 513.958 57.0626 514.281 56.7657C514.448 56.6199 514.604 56.474 514.76 56.3386C514.916 56.2032 515.062 56.0678 515.208 55.9428C515.354 55.8178 515.489 55.6928 515.625 55.5834C515.76 55.4688 515.885 55.3595 516.005 55.2605C516.244 55.0574 516.453 54.8855 516.63 54.7449C516.713 54.672 516.791 54.6095 516.864 54.5574C516.932 54.5001 516.989 54.4532 517.036 54.4167C517.135 54.3438 517.182 54.3074 517.182 54.3074C517.182 54.3074 517.146 54.3542 517.073 54.4532C517.031 54.5001 516.989 54.5574 516.932 54.6251C516.88 54.698 516.817 54.7709 516.744 54.8595C516.604 55.0365 516.432 55.2449 516.229 55.4845C516.13 55.6042 516.021 55.7292 515.906 55.8647C515.791 55.9949 515.672 56.1355 515.547 56.2813C515.422 56.4272 515.286 56.573 515.151 56.7292C515.015 56.8855 514.869 57.0417 514.724 57.2084C514.427 57.5313 514.109 57.8751 513.786 58.224C513.458 58.573 513.114 58.9324 512.765 59.2917C512.416 59.6511 512.057 60.0157 511.692 60.3751C510.974 61.099 510.239 61.8126 509.541 62.4688C509.364 62.6303 509.192 62.7917 509.021 62.948C508.937 63.0261 508.854 63.1042 508.771 63.1772C508.687 63.2553 508.604 63.3282 508.526 63.4011C508.359 63.5522 508.203 63.6928 508.047 63.8334C507.89 63.9688 507.744 64.1042 507.599 64.2292C507.312 64.4792 507.041 64.7084 506.807 64.9115C506.567 65.1147 506.354 65.2865 506.182 65.4272C506.093 65.5001 506.015 65.5626 505.948 65.6147C505.88 65.672 505.823 65.7188 505.776 65.7553C505.677 65.823 505.625 65.8595 505.625 65.8595Z" fill="#D9B765"/>
</g> -->
<!-- <g>
<path d="M497.453 73.5781L499.224 75.3438L497.458 77.1094L495.687 75.3438L497.453 73.5781Z" fill="#FFFFFF"/>
<path d="M507.479 75.3438C507.479 75.3438 507.396 75.349 507.25 75.3646C507.177 75.3698 507.089 75.375 506.979 75.3854C506.875 75.3906 506.75 75.401 506.615 75.4062C506.344 75.4271 506.01 75.4479 505.625 75.4688C505.245 75.4896 504.813 75.5104 504.344 75.526C504.109 75.5365 503.865 75.5469 503.615 75.5573C503.359 75.5625 503.099 75.5729 502.828 75.5833C502.286 75.599 501.724 75.6146 501.135 75.625C500.99 75.6302 500.839 75.6302 500.693 75.6354C500.542 75.6354 500.396 75.6354 500.24 75.6406C500.094 75.6458 499.938 75.6458 499.786 75.651C499.635 75.651 499.479 75.651 499.323 75.6562C498.708 75.6615 498.083 75.6667 497.458 75.6667C496.833 75.6667 496.203 75.6615 495.589 75.6562C495.432 75.651 495.281 75.651 495.13 75.651C494.974 75.6458 494.823 75.6458 494.672 75.6406C494.37 75.6354 494.073 75.6354 493.776 75.625C493.193 75.6146 492.625 75.599 492.089 75.5833C491.818 75.5729 491.557 75.5677 491.302 75.5573C491.047 75.5469 490.802 75.5365 490.568 75.5312C490.333 75.5156 490.109 75.5104 489.896 75.5C489.682 75.4896 489.479 75.4792 489.286 75.4687C488.906 75.4479 488.573 75.4271 488.297 75.4115C488.161 75.401 488.042 75.3958 487.932 75.3854C487.823 75.3802 487.734 75.3698 487.661 75.3646C487.516 75.3542 487.438 75.349 487.438 75.349C487.438 75.349 487.516 75.3385 487.661 75.3281C487.734 75.3229 487.823 75.3177 487.932 75.3073C488.042 75.3021 488.161 75.2917 488.297 75.2812C488.573 75.2656 488.906 75.2448 489.286 75.224C489.479 75.2135 489.682 75.2031 489.896 75.1927C490.109 75.1875 490.333 75.1771 490.568 75.1667C490.802 75.1563 491.047 75.1458 491.302 75.1354C491.557 75.125 491.818 75.1198 492.089 75.1094C492.625 75.0937 493.193 75.0781 493.776 75.0677C494.073 75.0573 494.37 75.0573 494.672 75.0521C494.823 75.0521 494.974 75.0469 495.13 75.0469C495.281 75.0417 495.432 75.0417 495.589 75.0365C496.203 75.0313 496.833 75.0312 497.458 75.0312C498.083 75.0313 498.708 75.0312 499.323 75.0365C499.479 75.0417 499.635 75.0417 499.786 75.0469C499.938 75.0469 500.089 75.0469 500.24 75.0521C500.391 75.0521 500.542 75.0573 500.693 75.0573C500.839 75.0625 500.99 75.0625 501.135 75.0677C501.724 75.0781 502.292 75.0937 502.828 75.1094C503.094 75.1198 503.359 75.1302 503.615 75.1406C503.865 75.1458 504.109 75.1563 504.344 75.1667C504.813 75.1875 505.245 75.2083 505.625 75.224C506.01 75.2448 506.344 75.2656 506.615 75.2865C506.75 75.2917 506.875 75.3021 506.979 75.3073C507.089 75.3177 507.177 75.3229 507.25 75.3281C507.396 75.3385 507.479 75.3438 507.479 75.3438Z" fill="#D9B765"/>
<path d="M497.458 85.3647C497.458 85.3647 497.453 85.2865 497.437 85.1407C497.432 85.0678 497.427 84.974 497.417 84.8699C497.411 84.7605 497.401 84.6407 497.39 84.5053C497.375 84.2292 497.354 83.8959 497.333 83.5157C497.312 83.1355 497.292 82.7032 497.276 82.2345C497.265 82.0001 497.255 81.7553 497.245 81.5001C497.239 81.2449 497.229 80.9845 497.219 80.7136C497.203 80.1772 497.187 79.6095 497.177 79.0261C497.172 78.8751 497.172 78.7292 497.167 78.5782C497.167 78.4324 497.167 78.2813 497.161 78.1303C497.156 77.9792 497.156 77.8282 497.151 77.672C497.151 77.5209 497.151 77.3699 497.146 77.2136C497.14 76.599 497.135 75.9688 497.135 75.3438C497.135 74.7188 497.14 74.0938 497.146 73.474C497.151 73.323 497.151 73.1667 497.151 73.0157C497.156 72.8647 497.156 72.7136 497.161 72.5626C497.167 72.2553 497.167 71.9584 497.177 71.6667C497.187 71.0782 497.203 70.5105 497.219 69.974C497.229 69.7032 497.234 69.4428 497.245 69.1876C497.255 68.9376 497.265 68.6928 497.271 68.4584C497.286 68.224 497.292 67.9949 497.302 67.7813C497.312 67.5678 497.323 67.3647 497.333 67.172C497.354 66.7917 497.375 66.4584 497.39 66.1876C497.401 66.047 497.406 65.9272 497.417 65.823C497.422 65.7136 497.432 65.6251 497.437 65.5522C497.448 65.4011 497.453 65.323 497.453 65.323C497.453 65.323 497.458 65.4011 497.474 65.5522C497.479 65.6251 497.484 65.7136 497.495 65.823C497.5 65.9272 497.51 66.047 497.521 66.1876C497.536 66.4584 497.557 66.7917 497.578 67.172C497.588 67.3647 497.599 67.5678 497.609 67.7813C497.614 67.9949 497.625 68.224 497.635 68.4584C497.646 68.6928 497.656 68.9376 497.667 69.1876C497.677 69.4428 497.682 69.7032 497.693 69.974C497.708 70.5157 497.724 71.0782 497.734 71.6667C497.745 71.9584 497.745 72.2553 497.75 72.5626C497.75 72.7084 497.755 72.8647 497.755 73.0157C497.76 73.1667 497.76 73.323 497.765 73.474C497.771 74.0938 497.771 74.7188 497.771 75.3438C497.771 75.9688 497.771 76.599 497.765 77.2136C497.76 77.3699 497.76 77.5209 497.755 77.672C497.755 77.823 497.755 77.9792 497.75 78.1303C497.75 78.2813 497.745 78.4324 497.745 78.5782C497.739 78.7292 497.734 78.8751 497.734 79.0261C497.724 79.6095 497.708 80.1772 497.687 80.7136C497.682 80.9845 497.672 81.2449 497.661 81.5001C497.656 81.7553 497.646 82.0001 497.635 82.2345C497.614 82.7032 497.594 83.1303 497.573 83.5157C497.552 83.8959 497.536 84.2292 497.515 84.5053C497.505 84.6407 497.5 84.7605 497.495 84.8699C497.484 84.974 497.479 85.0678 497.474 85.1407C497.463 85.2865 497.458 85.3647 497.458 85.3647Z" fill="#D9B765"/>
<path d="M501.922 79.8125C501.922 79.8125 501.88 79.7813 501.807 79.724C501.771 79.6927 501.724 79.6563 501.672 79.6146C501.62 79.5729 501.563 79.526 501.495 79.4688C501.36 79.3594 501.198 79.224 501.011 79.0729C500.828 78.9167 500.62 78.7396 500.396 78.5417C500.287 78.4427 500.172 78.3437 500.052 78.2344C499.932 78.1302 499.807 78.0208 499.682 77.9062C499.62 77.849 499.557 77.7917 499.49 77.7292C499.427 77.6719 499.36 77.6146 499.297 77.5521C499.162 77.4323 499.031 77.3073 498.896 77.1823C498.354 76.6719 497.792 76.125 497.229 75.5677C496.953 75.2865 496.677 75.0052 496.406 74.7292C496.136 74.4479 495.87 74.1719 495.62 73.901C495.365 73.6302 495.125 73.3698 494.896 73.1146C494.781 72.9896 494.667 72.8698 494.563 72.75C494.458 72.625 494.354 72.5156 494.255 72.401C494.162 72.2865 494.068 72.1823 493.979 72.0781C493.891 71.974 493.807 71.8802 493.729 71.7865C493.573 71.6042 493.438 71.4375 493.328 71.3021C493.276 71.2344 493.224 71.1771 493.188 71.125C493.146 71.0729 493.11 71.026 493.078 70.9896C493.021 70.9167 492.99 70.875 492.99 70.875C492.99 70.875 493.031 70.9062 493.104 70.9635C493.141 70.9896 493.188 71.026 493.24 71.0729C493.292 71.1146 493.354 71.1615 493.422 71.2135C493.557 71.3229 493.719 71.4583 493.901 71.6146C493.995 71.6927 494.094 71.776 494.193 71.8646C494.297 71.9531 494.406 72.0469 494.516 72.1406C494.63 72.2396 494.745 72.3437 494.865 72.4479C494.985 72.5573 495.104 72.6667 495.235 72.7812C495.485 73.0052 495.745 73.25 496.016 73.5052C496.287 73.7604 496.563 74.0208 496.839 74.2917C497.12 74.5625 497.401 74.8438 497.682 75.1198C498.24 75.6771 498.787 76.2448 499.292 76.7865C499.422 76.9219 499.547 77.0521 499.667 77.1875C499.724 77.25 499.787 77.3125 499.844 77.3802C499.901 77.4427 499.958 77.5104 500.021 77.5729C500.13 77.6979 500.245 77.8177 500.349 77.9375C500.453 78.0625 500.557 78.1771 500.656 78.2865C500.849 78.5104 501.026 78.7187 501.182 78.901C501.339 79.0833 501.474 79.25 501.583 79.3802C501.636 79.4479 501.688 79.5104 501.729 79.5625C501.771 79.6146 501.802 79.6615 501.833 79.6979C501.891 79.7708 501.922 79.8125 501.922 79.8125Z" fill="#D9B765"/>
<path d="M492.989 79.8073C492.989 79.8073 493.021 79.7709 493.078 79.698C493.109 79.6563 493.146 79.6146 493.187 79.5625C493.229 79.5105 493.276 79.448 493.333 79.3802C493.443 79.2448 493.573 79.0834 493.729 78.9011C493.885 78.7136 494.062 78.5105 494.26 78.2865C494.354 78.1719 494.458 78.0573 494.568 77.9375C494.672 77.8177 494.781 77.698 494.896 77.5677C494.953 77.5052 495.01 77.4427 495.068 77.3802C495.13 77.3125 495.187 77.25 495.25 77.1823C495.37 77.0521 495.495 76.9167 495.62 76.7813C496.125 76.2448 496.677 75.6771 497.234 75.1198C497.515 74.8386 497.797 74.5625 498.073 74.2917C498.354 74.0209 498.63 73.7605 498.901 73.5052C499.172 73.2552 499.432 73.0105 499.687 72.7813C499.812 72.6667 499.932 72.5573 500.052 72.4532C500.172 72.3438 500.286 72.2448 500.401 72.1459C500.515 72.0469 500.62 71.9532 500.724 71.8646C500.828 71.7761 500.922 71.6927 501.015 71.6146C501.198 71.4584 501.364 71.3282 501.5 71.2188C501.568 71.1615 501.625 71.1146 501.677 71.073C501.729 71.0313 501.776 70.9948 501.812 70.9636C501.885 70.9115 501.927 70.8802 501.927 70.8802C501.927 70.8802 501.896 70.9167 501.838 70.9896C501.807 71.0313 501.776 71.073 501.729 71.125C501.687 71.1823 501.64 71.2396 501.588 71.3073C501.479 71.4427 501.344 71.6042 501.187 71.7917C501.109 71.8803 501.026 71.9792 500.937 72.0834C500.849 72.1875 500.755 72.2917 500.656 72.4063C500.562 72.5157 500.458 72.6302 500.354 72.75C500.245 72.8698 500.135 72.9948 500.021 73.1198C499.797 73.3698 499.552 73.6355 499.297 73.9063C499.042 74.1771 498.781 74.4532 498.51 74.7292C498.239 75.0052 497.958 75.2865 497.682 75.5677C497.125 76.125 496.557 76.6771 496.015 77.1823C495.88 77.3073 495.75 77.4323 495.614 77.5521C495.552 77.6146 495.489 77.6719 495.422 77.7292C495.359 77.7917 495.292 77.849 495.229 77.9063C495.104 78.0209 494.984 78.1302 494.859 78.2344C494.739 78.3438 494.625 78.4427 494.515 78.5417C494.292 78.7396 494.083 78.9167 493.901 79.073C493.719 79.224 493.552 79.3594 493.422 79.4688C493.354 79.5261 493.292 79.573 493.239 79.6146C493.187 79.6563 493.14 79.6927 493.104 79.724C493.031 79.7761 492.989 79.8073 492.989 79.8073Z" fill="#D9B765"/>
</g> -->
</svg>
